G75*
G70*
%OFA0B0*%
%FSLAX24Y24*%
%IPPOS*%
%LPD*%
%AMOC8*
5,1,8,0,0,1.08239X$1,22.5*
%
%ADD10C,0.0050*%
%ADD11C,0.0040*%
%ADD12C,0.0591*%
%ADD13C,0.0413*%
%ADD14OC8,0.0600*%
%ADD15C,0.0866*%
%ADD16C,0.0669*%
%ADD17C,0.0600*%
%ADD18C,0.0700*%
%ADD19C,0.0660*%
%ADD20C,0.0236*%
%ADD21C,0.0120*%
%ADD22C,0.0320*%
%ADD23C,0.0315*%
%ADD24C,0.0240*%
%ADD25C,0.0100*%
%ADD26C,0.0400*%
%ADD27C,0.0354*%
%ADD28C,0.0650*%
%ADD29C,0.1654*%
D10*
X008053Y015277D02*
X008007Y015322D01*
X008007Y015367D01*
X008053Y015412D01*
X008188Y015412D01*
X008188Y015322D01*
X008143Y015277D01*
X008053Y015277D01*
X008188Y015412D02*
X008098Y015502D01*
X008007Y015547D01*
X008302Y015502D02*
X008482Y015322D01*
X008437Y015277D01*
X008347Y015277D01*
X008302Y015322D01*
X008302Y015502D01*
X008347Y015547D01*
X008437Y015547D01*
X008482Y015502D01*
X008482Y015322D01*
X008585Y015322D02*
X008585Y015277D01*
X008630Y015277D01*
X008630Y015322D01*
X008585Y015322D01*
X008744Y015502D02*
X008924Y015322D01*
X008924Y015277D01*
X009039Y015322D02*
X009039Y015502D01*
X009219Y015322D01*
X009174Y015277D01*
X009084Y015277D01*
X009039Y015322D01*
X009039Y015502D02*
X009084Y015547D01*
X009174Y015547D01*
X009219Y015502D01*
X009219Y015322D01*
X009321Y015322D02*
X009321Y015277D01*
X009366Y015277D01*
X009366Y015322D01*
X009321Y015322D01*
X009481Y015322D02*
X009481Y015367D01*
X009526Y015412D01*
X009571Y015412D01*
X009526Y015412D02*
X009481Y015457D01*
X009481Y015502D01*
X009526Y015547D01*
X009616Y015547D01*
X009661Y015502D01*
X009661Y015322D02*
X009616Y015277D01*
X009526Y015277D01*
X009481Y015322D01*
X009775Y015277D02*
X009956Y015277D01*
X009865Y015277D02*
X009865Y015547D01*
X009956Y015457D01*
X010058Y015502D02*
X010103Y015457D01*
X010058Y015502D02*
X010058Y015592D01*
X010410Y015757D02*
X010410Y016027D01*
X010545Y015892D01*
X010365Y015892D01*
X010659Y015937D02*
X010659Y015982D01*
X010704Y016027D01*
X010794Y016027D01*
X010840Y015982D01*
X010840Y015937D01*
X010794Y015892D01*
X010704Y015892D01*
X010659Y015847D01*
X010659Y015802D01*
X010704Y015757D01*
X010794Y015757D01*
X010840Y015802D01*
X010840Y015847D01*
X010794Y015892D01*
X010704Y015892D02*
X010659Y015937D01*
X010954Y015982D02*
X010999Y016027D01*
X011089Y016027D01*
X011134Y015982D01*
X011134Y015802D01*
X011089Y015757D01*
X010999Y015757D01*
X010954Y015802D01*
X011089Y015592D02*
X011089Y015547D01*
X011089Y015457D02*
X011089Y015277D01*
X011134Y015277D02*
X011044Y015277D01*
X010938Y015277D02*
X010938Y015457D01*
X010848Y015457D02*
X010803Y015457D01*
X010848Y015457D02*
X010938Y015367D01*
X011089Y015457D02*
X011134Y015457D01*
X011249Y015412D02*
X011249Y015277D01*
X011249Y015412D02*
X011294Y015457D01*
X011384Y015457D01*
X011429Y015412D01*
X011543Y015457D02*
X011678Y015457D01*
X011723Y015412D01*
X011678Y015367D01*
X011588Y015367D01*
X011543Y015322D01*
X011588Y015277D01*
X011723Y015277D01*
X011838Y015277D02*
X011838Y015412D01*
X011883Y015457D01*
X011973Y015457D01*
X011973Y015367D02*
X011838Y015367D01*
X011838Y015277D02*
X011973Y015277D01*
X012018Y015322D01*
X011973Y015367D01*
X012133Y015412D02*
X012133Y015277D01*
X012223Y015277D02*
X012223Y015412D01*
X012178Y015457D01*
X012133Y015412D01*
X012223Y015412D02*
X012268Y015457D01*
X012313Y015457D01*
X012313Y015277D01*
X012427Y015277D02*
X012562Y015277D01*
X012607Y015322D01*
X012562Y015367D01*
X012427Y015367D01*
X012427Y015412D02*
X012427Y015277D01*
X012427Y015412D02*
X012472Y015457D01*
X012562Y015457D01*
X012722Y015502D02*
X012722Y015547D01*
X012722Y015502D02*
X012812Y015412D01*
X012812Y015277D01*
X012812Y015412D02*
X012902Y015502D01*
X012902Y015547D01*
X012865Y015757D02*
X012820Y015802D01*
X012865Y015847D01*
X012955Y015847D01*
X013000Y015892D01*
X012955Y015937D01*
X012820Y015937D01*
X012706Y015892D02*
X012661Y015937D01*
X012571Y015937D01*
X012525Y015892D01*
X012525Y015847D01*
X012706Y015847D01*
X012706Y015802D02*
X012706Y015892D01*
X012706Y015802D02*
X012661Y015757D01*
X012571Y015757D01*
X012865Y015757D02*
X013000Y015757D01*
X013115Y015757D02*
X013115Y015937D01*
X013295Y015937D02*
X013295Y015802D01*
X013250Y015757D01*
X013115Y015757D01*
X013409Y015847D02*
X013590Y015847D01*
X013590Y015892D02*
X013545Y015937D01*
X013454Y015937D01*
X013409Y015892D01*
X013409Y015847D01*
X013454Y015757D02*
X013545Y015757D01*
X013590Y015802D01*
X013590Y015892D01*
X013704Y015937D02*
X013839Y015937D01*
X013884Y015892D01*
X013884Y015802D01*
X013839Y015757D01*
X013704Y015757D01*
X013704Y015711D02*
X013704Y015937D01*
X013704Y015711D02*
X013749Y015666D01*
X013794Y015666D01*
X013786Y015457D02*
X013651Y015457D01*
X013606Y015412D01*
X013606Y015277D01*
X013491Y015277D02*
X013491Y015322D01*
X013446Y015322D01*
X013446Y015277D01*
X013491Y015277D01*
X013491Y015412D02*
X013491Y015457D01*
X013446Y015457D01*
X013446Y015412D01*
X013491Y015412D01*
X013344Y015502D02*
X013254Y015412D01*
X013254Y015277D01*
X013254Y015412D02*
X013164Y015502D01*
X013164Y015547D01*
X013344Y015547D02*
X013344Y015502D01*
X013049Y015322D02*
X013004Y015322D01*
X013004Y015277D01*
X013049Y015277D01*
X013049Y015322D01*
X013786Y015277D02*
X013786Y015457D01*
X013901Y015457D02*
X013901Y015231D01*
X013946Y015186D01*
X013991Y015186D01*
X014036Y015277D02*
X013901Y015277D01*
X014036Y015277D02*
X014081Y015322D01*
X014081Y015412D01*
X014036Y015457D01*
X013901Y015457D01*
X014232Y015457D02*
X014232Y015277D01*
X014277Y015277D02*
X014187Y015277D01*
X014232Y015457D02*
X014277Y015457D01*
X014232Y015547D02*
X014232Y015592D01*
X014240Y015757D02*
X014330Y015757D01*
X014375Y015802D01*
X014375Y015892D01*
X014330Y015937D01*
X014240Y015937D01*
X014195Y015892D01*
X014195Y015847D01*
X014375Y015847D01*
X014482Y015937D02*
X014572Y015937D01*
X014527Y015982D02*
X014527Y015802D01*
X014482Y015757D01*
X014686Y015847D02*
X014866Y015847D01*
X014866Y015892D02*
X014821Y015937D01*
X014731Y015937D01*
X014686Y015892D01*
X014686Y015847D01*
X014731Y015757D02*
X014821Y015757D01*
X014866Y015802D01*
X014866Y015892D01*
X014981Y015937D02*
X015026Y015892D01*
X015161Y015892D01*
X015161Y015757D02*
X015161Y016027D01*
X015026Y016027D01*
X014981Y015982D01*
X014981Y015937D01*
X015026Y015892D02*
X014981Y015847D01*
X014981Y015802D01*
X015026Y015757D01*
X015161Y015757D01*
X015161Y015547D02*
X015026Y015547D01*
X014981Y015502D01*
X014981Y015322D01*
X015026Y015277D01*
X015161Y015277D01*
X015161Y015547D01*
X014866Y015412D02*
X014821Y015457D01*
X014731Y015457D01*
X014686Y015412D01*
X014686Y015367D01*
X014866Y015367D01*
X014866Y015322D02*
X014866Y015412D01*
X014866Y015322D02*
X014821Y015277D01*
X014731Y015277D01*
X014572Y015277D02*
X014437Y015277D01*
X014392Y015322D01*
X014437Y015367D01*
X014527Y015367D01*
X014572Y015412D01*
X014527Y015457D01*
X014392Y015457D01*
X014081Y015757D02*
X013991Y015757D01*
X014036Y015757D02*
X014036Y016027D01*
X014081Y016027D01*
X012116Y016027D02*
X012116Y015847D01*
X012026Y015757D01*
X011936Y015847D01*
X011936Y016027D01*
X011822Y015892D02*
X011777Y015937D01*
X011687Y015937D01*
X011642Y015892D01*
X011642Y015847D01*
X011822Y015847D01*
X011822Y015802D02*
X011822Y015892D01*
X011822Y015802D02*
X011777Y015757D01*
X011687Y015757D01*
X011527Y015757D02*
X011527Y015937D01*
X011437Y015937D02*
X011392Y015937D01*
X011437Y015937D02*
X011527Y015847D01*
X011281Y015802D02*
X011236Y015802D01*
X011236Y015757D01*
X011281Y015757D01*
X011281Y015802D01*
X011429Y015547D02*
X011429Y015277D01*
X010692Y015322D02*
X010647Y015277D01*
X010557Y015277D01*
X010512Y015322D01*
X010512Y015412D01*
X010557Y015457D01*
X010647Y015457D01*
X010692Y015412D01*
X010692Y015322D01*
X008924Y015547D02*
X008744Y015547D01*
X008744Y015502D01*
D11*
X017523Y007234D02*
X017640Y007116D01*
X017483Y007116D01*
X017523Y006998D02*
X017523Y007234D01*
X017737Y007195D02*
X017737Y007156D01*
X017776Y007116D01*
X017855Y007116D01*
X017894Y007156D01*
X017894Y007195D01*
X017855Y007234D01*
X017776Y007234D01*
X017737Y007195D01*
X017776Y007116D02*
X017737Y007077D01*
X017737Y007038D01*
X017776Y006998D01*
X017855Y006998D01*
X017894Y007038D01*
X017894Y007077D01*
X017855Y007116D01*
X017991Y007038D02*
X018030Y006998D01*
X018109Y006998D01*
X018148Y007038D01*
X018148Y007195D01*
X018109Y007234D01*
X018030Y007234D01*
X017991Y007195D01*
X018236Y007038D02*
X018236Y006998D01*
X018275Y006998D01*
X018275Y007038D01*
X018236Y007038D01*
X018368Y007156D02*
X018408Y007156D01*
X018486Y007077D01*
X018486Y006998D02*
X018486Y007156D01*
X018583Y007116D02*
X018583Y007077D01*
X018740Y007077D01*
X018740Y007116D02*
X018701Y007156D01*
X018622Y007156D01*
X018583Y007116D01*
X018622Y006998D02*
X018701Y006998D01*
X018740Y007038D01*
X018740Y007116D01*
X018837Y007077D02*
X018837Y007234D01*
X018994Y007234D02*
X018994Y007077D01*
X018915Y006998D01*
X018837Y007077D01*
X018402Y006821D02*
X018402Y006585D01*
X018498Y006624D02*
X018538Y006664D01*
X018616Y006664D01*
X018656Y006703D01*
X018616Y006742D01*
X018498Y006742D01*
X018402Y006703D02*
X018362Y006742D01*
X018284Y006742D01*
X018245Y006703D01*
X018245Y006585D01*
X018148Y006585D02*
X018069Y006585D01*
X018109Y006585D02*
X018109Y006742D01*
X018148Y006742D01*
X018109Y006821D02*
X018109Y006860D01*
X017979Y006742D02*
X017979Y006585D01*
X017979Y006664D02*
X017900Y006742D01*
X017861Y006742D01*
X017767Y006703D02*
X017767Y006624D01*
X017728Y006585D01*
X017649Y006585D01*
X017610Y006624D01*
X017610Y006703D01*
X017649Y006742D01*
X017728Y006742D01*
X017767Y006703D01*
X018287Y006407D02*
X018365Y006368D01*
X018444Y006289D01*
X018326Y006289D01*
X018287Y006250D01*
X018287Y006211D01*
X018326Y006172D01*
X018405Y006172D01*
X018444Y006211D01*
X018444Y006289D01*
X018541Y006211D02*
X018580Y006172D01*
X018659Y006172D01*
X018698Y006211D01*
X018541Y006368D01*
X018541Y006211D01*
X018698Y006211D02*
X018698Y006368D01*
X018659Y006407D01*
X018580Y006407D01*
X018541Y006368D01*
X018538Y006585D02*
X018498Y006624D01*
X018538Y006585D02*
X018656Y006585D01*
X018752Y006585D02*
X018870Y006585D01*
X018909Y006624D01*
X018870Y006664D01*
X018752Y006664D01*
X018752Y006703D02*
X018752Y006585D01*
X018752Y006703D02*
X018791Y006742D01*
X018870Y006742D01*
X019006Y006703D02*
X019006Y006585D01*
X019084Y006585D02*
X019084Y006703D01*
X019045Y006742D01*
X019006Y006703D01*
X019084Y006703D02*
X019124Y006742D01*
X019163Y006742D01*
X019163Y006585D01*
X019260Y006585D02*
X019378Y006585D01*
X019417Y006624D01*
X019378Y006664D01*
X019260Y006664D01*
X019260Y006703D02*
X019260Y006585D01*
X019260Y006703D02*
X019299Y006742D01*
X019378Y006742D01*
X019513Y006781D02*
X019513Y006821D01*
X019513Y006781D02*
X019592Y006703D01*
X019592Y006585D01*
X019592Y006703D02*
X019671Y006781D01*
X019671Y006821D01*
X019637Y006998D02*
X019598Y007038D01*
X019637Y007077D01*
X019716Y007077D01*
X019755Y007116D01*
X019716Y007156D01*
X019598Y007156D01*
X019501Y007116D02*
X019462Y007156D01*
X019384Y007156D01*
X019344Y007116D01*
X019344Y007077D01*
X019501Y007077D01*
X019501Y007038D02*
X019501Y007116D01*
X019501Y007038D02*
X019462Y006998D01*
X019384Y006998D01*
X019637Y006998D02*
X019755Y006998D01*
X019852Y006998D02*
X019852Y007156D01*
X020009Y007156D02*
X020009Y007038D01*
X019970Y006998D01*
X019852Y006998D01*
X019894Y006821D02*
X019894Y006781D01*
X019973Y006703D01*
X019973Y006585D01*
X019973Y006703D02*
X020051Y006781D01*
X020051Y006821D01*
X020139Y006742D02*
X020139Y006703D01*
X020178Y006703D01*
X020178Y006742D01*
X020139Y006742D01*
X020139Y006624D02*
X020139Y006585D01*
X020178Y006585D01*
X020178Y006624D01*
X020139Y006624D01*
X020275Y006585D02*
X020275Y006703D01*
X020314Y006742D01*
X020432Y006742D01*
X020432Y006585D01*
X020528Y006585D02*
X020646Y006585D01*
X020686Y006624D01*
X020686Y006703D01*
X020646Y006742D01*
X020528Y006742D01*
X020528Y006546D01*
X020568Y006506D01*
X020607Y006506D01*
X020776Y006585D02*
X020855Y006585D01*
X020815Y006585D02*
X020815Y006742D01*
X020855Y006742D01*
X020815Y006821D02*
X020815Y006860D01*
X020821Y006998D02*
X020900Y006998D01*
X020939Y007038D01*
X020939Y007116D01*
X020900Y007156D01*
X020821Y007156D01*
X020782Y007116D01*
X020782Y007077D01*
X020939Y007077D01*
X021030Y007156D02*
X021109Y007156D01*
X021069Y007195D02*
X021069Y007038D01*
X021030Y006998D01*
X021205Y007077D02*
X021362Y007077D01*
X021362Y007116D02*
X021323Y007156D01*
X021244Y007156D01*
X021205Y007116D01*
X021205Y007077D01*
X021244Y006998D02*
X021323Y006998D01*
X021362Y007038D01*
X021362Y007116D01*
X021459Y007077D02*
X021459Y007038D01*
X021498Y006998D01*
X021616Y006998D01*
X021616Y007234D01*
X021498Y007234D01*
X021459Y007195D01*
X021459Y007156D01*
X021498Y007116D01*
X021616Y007116D01*
X021498Y007116D02*
X021459Y007077D01*
X021498Y006821D02*
X021616Y006821D01*
X021616Y006585D01*
X021498Y006585D01*
X021459Y006624D01*
X021459Y006781D01*
X021498Y006821D01*
X021362Y006703D02*
X021323Y006742D01*
X021244Y006742D01*
X021205Y006703D01*
X021205Y006664D01*
X021362Y006664D01*
X021362Y006703D02*
X021362Y006624D01*
X021323Y006585D01*
X021244Y006585D01*
X021109Y006585D02*
X020991Y006585D01*
X020951Y006624D01*
X020991Y006664D01*
X021069Y006664D01*
X021109Y006703D01*
X021069Y006742D01*
X020951Y006742D01*
X020438Y006920D02*
X020399Y006920D01*
X020359Y006959D01*
X020359Y007156D01*
X020477Y007156D01*
X020516Y007116D01*
X020516Y007038D01*
X020477Y006998D01*
X020359Y006998D01*
X020263Y007038D02*
X020263Y007116D01*
X020223Y007156D01*
X020145Y007156D01*
X020105Y007116D01*
X020105Y007077D01*
X020263Y007077D01*
X020263Y007038D02*
X020223Y006998D01*
X020145Y006998D01*
X020607Y006998D02*
X020686Y006998D01*
X020646Y006998D02*
X020646Y007234D01*
X020686Y007234D01*
X019797Y006624D02*
X019758Y006624D01*
X019758Y006585D01*
X019797Y006585D01*
X019797Y006624D01*
X019888Y006407D02*
X019888Y006172D01*
X019967Y006172D02*
X019809Y006172D01*
X019713Y006211D02*
X019674Y006172D01*
X019595Y006172D01*
X019556Y006211D01*
X019556Y006250D01*
X019595Y006289D01*
X019634Y006289D01*
X019595Y006289D02*
X019556Y006329D01*
X019556Y006368D01*
X019595Y006407D01*
X019674Y006407D01*
X019713Y006368D01*
X019888Y006407D02*
X019967Y006329D01*
X020054Y006368D02*
X020094Y006329D01*
X020054Y006368D02*
X020054Y006447D01*
X019459Y006211D02*
X019420Y006211D01*
X019420Y006172D01*
X019459Y006172D01*
X019459Y006211D01*
X019332Y006211D02*
X019175Y006368D01*
X019175Y006211D01*
X019214Y006172D01*
X019293Y006172D01*
X019332Y006211D01*
X019332Y006368D01*
X019293Y006407D01*
X019214Y006407D01*
X019175Y006368D01*
X019078Y006407D02*
X018921Y006407D01*
X018921Y006368D01*
X019078Y006211D01*
X019078Y006172D01*
X018825Y006172D02*
X018785Y006172D01*
X018785Y006211D01*
X018825Y006211D01*
X018825Y006172D01*
D12*
X002605Y005839D02*
X002015Y005839D01*
X002015Y002965D02*
X002605Y002965D01*
D13*
X004298Y003772D03*
X003826Y004087D03*
X004298Y004402D03*
X003826Y004716D03*
X004298Y005031D03*
D14*
X007636Y007852D03*
X029736Y007852D03*
D15*
X002620Y014274D03*
X002620Y017029D03*
D16*
X001636Y016636D03*
X001636Y014667D03*
D17*
X003456Y014762D02*
X004056Y014762D01*
X006016Y014762D02*
X006616Y014762D01*
X007606Y014762D02*
X008206Y014762D01*
X010166Y014762D02*
X010766Y014762D01*
X011756Y014762D02*
X012356Y014762D01*
X014316Y014762D02*
X014916Y014762D01*
X015906Y014762D02*
X016506Y014762D01*
X018466Y014762D02*
X019066Y014762D01*
X019066Y016542D02*
X018466Y016542D01*
X016506Y016542D02*
X015906Y016542D01*
X014916Y016542D02*
X014316Y016542D01*
X012356Y016542D02*
X011756Y016542D01*
X010766Y016542D02*
X010166Y016542D01*
X008206Y016542D02*
X007606Y016542D01*
X006616Y016542D02*
X006016Y016542D01*
X004056Y016542D02*
X003456Y016542D01*
D18*
X011686Y013002D03*
X012686Y013002D03*
X013686Y013002D03*
X014686Y013002D03*
X015686Y013002D03*
X016686Y013002D03*
X017686Y013002D03*
X018686Y013002D03*
X019686Y013002D03*
X020686Y013002D03*
X021686Y013002D03*
X022686Y013002D03*
X023686Y013002D03*
X024686Y013002D03*
X025686Y013002D03*
X026686Y013002D03*
X027686Y013002D03*
X027686Y007802D03*
X026686Y007802D03*
X025686Y007802D03*
X024686Y007802D03*
X023686Y007802D03*
X022686Y007802D03*
X021686Y007802D03*
X020686Y007802D03*
X019686Y007802D03*
X018686Y007802D03*
X017686Y007802D03*
X016686Y007802D03*
X015686Y007802D03*
X014686Y007802D03*
X013686Y007802D03*
X012686Y007802D03*
X011686Y007802D03*
D19*
X029986Y014152D03*
X029986Y015152D03*
X029986Y016152D03*
X029986Y017152D03*
X035586Y017152D03*
X035586Y016152D03*
X035586Y015152D03*
X035586Y014152D03*
D20*
X028836Y015202D03*
X028786Y016502D03*
X026186Y016502D03*
X026236Y015202D03*
X023636Y015202D03*
X023586Y016502D03*
X019686Y017252D03*
X018486Y017652D03*
X016486Y017252D03*
X014336Y017652D03*
X012336Y017252D03*
X010186Y017652D03*
X008186Y017252D03*
X006036Y017652D03*
X004036Y017252D03*
X014336Y006402D03*
X016786Y005752D03*
X017729Y005109D03*
X017736Y004652D03*
X017436Y004302D03*
X016786Y004302D03*
X016736Y003802D03*
X017086Y003502D03*
X016336Y003102D03*
X015686Y003602D03*
X015236Y004402D03*
X014786Y004552D03*
X018036Y004152D03*
X018359Y004624D03*
X018336Y005374D03*
X020636Y003102D03*
X023186Y005152D03*
X023786Y005152D03*
X025036Y006352D03*
X027436Y005002D03*
X028786Y005002D03*
X028886Y003852D03*
X027886Y003402D03*
X027236Y003302D03*
X026286Y004202D03*
X025186Y003252D03*
X029086Y006752D03*
X012836Y002752D03*
X009686Y004452D03*
X008636Y004552D03*
X008236Y003952D03*
X007586Y003952D03*
X009336Y005152D03*
X010436Y005052D03*
D21*
X011236Y004252D01*
X015086Y004252D01*
X015236Y004402D01*
X014786Y004552D02*
X015461Y005227D01*
X015461Y005277D01*
X016786Y005752D02*
X016786Y007702D01*
X016686Y007802D01*
X017729Y005109D02*
X017286Y004666D01*
X017286Y004452D01*
X017736Y004652D02*
X017764Y004624D01*
X018359Y004624D01*
X017286Y003802D02*
X020936Y003802D01*
X022686Y005552D01*
X023586Y005552D01*
X023786Y005352D01*
X023786Y005152D01*
X023186Y005152D02*
X022686Y005152D01*
X021036Y003502D01*
X017086Y003502D01*
X017286Y003802D02*
X016786Y004302D01*
X016086Y003852D02*
X015936Y004002D01*
X010836Y004002D01*
X010036Y004802D01*
X009686Y004802D01*
X009336Y005152D01*
X009686Y004452D02*
X011386Y002752D01*
X012836Y002752D01*
X014836Y002752D01*
X015686Y003602D01*
X016086Y003852D02*
X016686Y003852D01*
X016736Y003802D01*
X016336Y003102D02*
X020636Y003102D01*
X024886Y003402D02*
X025036Y003252D01*
X025186Y003252D01*
X024886Y003402D02*
X024886Y004102D01*
X025036Y004252D01*
X026236Y004252D01*
X026286Y004202D01*
X026436Y004052D01*
X026436Y003702D01*
X026536Y003602D01*
X027036Y003602D01*
X027636Y004202D01*
X028536Y004202D01*
X028786Y004452D01*
X028786Y005002D01*
X027436Y005002D02*
X027436Y006602D01*
X027586Y006752D01*
X029086Y006752D01*
X028886Y003852D02*
X027786Y003852D01*
X027236Y003302D01*
X009686Y004452D02*
X009186Y003952D01*
X008236Y003952D01*
X007586Y003952D02*
X007036Y003952D01*
X006186Y003102D01*
X003386Y003102D01*
X002936Y003552D01*
X002936Y004402D01*
X003236Y004702D01*
X003811Y004702D01*
X003826Y004716D01*
X007636Y007802D02*
X007636Y007852D01*
X010286Y013002D02*
X002436Y013002D01*
X001636Y013802D01*
X001636Y014667D01*
X004036Y017252D02*
X008186Y017252D01*
X012336Y017252D01*
X016486Y017252D01*
X018486Y017652D02*
X014336Y017652D01*
X010186Y017652D01*
X006036Y017652D01*
X010466Y014762D02*
X011326Y013902D01*
X015186Y013902D01*
X015686Y013402D01*
X015686Y013002D01*
X015786Y013902D02*
X017386Y013902D01*
X017686Y013602D01*
X017686Y013002D01*
X015786Y013902D02*
X014926Y014762D01*
X014616Y014762D01*
X012686Y013352D02*
X012436Y013602D01*
X010886Y013602D01*
X010286Y013002D01*
X012686Y013002D02*
X012686Y013352D01*
X018766Y014762D02*
X019426Y014762D01*
X020286Y013902D01*
X022186Y013902D01*
X022686Y013402D01*
X022686Y013002D01*
X023686Y013002D02*
X023686Y013452D01*
X022686Y014452D01*
X021336Y014452D01*
X020886Y014902D01*
X020886Y017252D01*
X019686Y017252D01*
D22*
X011686Y007802D02*
X009286Y007802D01*
X008636Y007152D01*
X008636Y004552D01*
X005336Y004052D02*
X005336Y006852D01*
X006286Y007802D01*
X007636Y007802D01*
X009286Y007802D01*
X011686Y007802D02*
X011686Y007302D01*
X011986Y007002D01*
X012936Y007002D01*
X014036Y005902D01*
X014836Y005902D01*
X015461Y005277D01*
X015936Y004802D01*
X016936Y004802D01*
X017436Y004302D01*
X017286Y004452D01*
X017436Y004302D02*
X017586Y004152D01*
X018036Y004152D01*
X020586Y004152D01*
X022786Y006352D01*
X025036Y006352D01*
X027236Y007102D02*
X022736Y007102D01*
X020259Y004624D01*
X018359Y004624D01*
X018359Y005202D01*
X018359Y005379D01*
X018136Y005602D01*
X017486Y005602D01*
X017186Y005302D01*
X016236Y005302D01*
X015136Y006402D01*
X014336Y006402D01*
X005336Y004052D02*
X005071Y003786D01*
X004313Y003786D01*
X027236Y007102D02*
X027686Y007552D01*
X027686Y007802D01*
X029086Y006752D02*
X029336Y006502D01*
X029336Y003652D01*
X029086Y003402D01*
X027886Y003402D01*
D23*
X027586Y002952D03*
X027036Y005252D03*
X021336Y003202D03*
X002186Y007352D03*
X001636Y013152D03*
X004886Y013802D03*
D24*
X001153Y008284D02*
X001153Y002618D01*
X001547Y002618D01*
X001527Y002639D01*
X001440Y002850D01*
X001440Y003079D01*
X001527Y003290D01*
X001689Y003452D01*
X001900Y003540D01*
X002596Y003540D01*
X002596Y004469D01*
X002648Y004594D01*
X002948Y004894D01*
X003043Y004990D01*
X003168Y005042D01*
X003463Y005042D01*
X003550Y005129D01*
X003729Y005203D01*
X003843Y005203D01*
X003886Y005307D01*
X004023Y005444D01*
X004201Y005518D01*
X004395Y005518D01*
X004574Y005444D01*
X004711Y005307D01*
X004785Y005128D01*
X004785Y004935D01*
X004711Y004756D01*
X004672Y004716D01*
X004711Y004677D01*
X004785Y004498D01*
X004785Y004305D01*
X004711Y004126D01*
X004628Y004043D01*
X004663Y003995D01*
X004694Y003935D01*
X004714Y003872D01*
X004725Y003805D01*
X004725Y003772D01*
X004298Y003772D01*
X004298Y003772D01*
X004725Y003772D01*
X004725Y003738D01*
X004714Y003672D01*
X004694Y003608D01*
X004663Y003548D01*
X004624Y003494D01*
X006098Y003494D01*
X006045Y003442D02*
X004570Y003442D01*
X004576Y003446D01*
X004624Y003494D01*
X004724Y003733D02*
X006336Y003733D01*
X006575Y003971D02*
X004676Y003971D01*
X004746Y004210D02*
X006813Y004210D01*
X006843Y004240D02*
X006045Y003442D01*
X006843Y004240D02*
X006968Y004292D01*
X007367Y004292D01*
X007507Y004350D01*
X007665Y004350D01*
X007812Y004289D01*
X007911Y004190D01*
X008011Y004289D01*
X008157Y004350D01*
X008315Y004350D01*
X008456Y004292D01*
X009045Y004292D01*
X009290Y004537D01*
X009343Y004664D01*
X009251Y004756D01*
X009111Y004814D01*
X008999Y004926D01*
X008938Y005072D01*
X008938Y005231D01*
X008999Y005377D01*
X009111Y005489D01*
X009257Y005550D01*
X009415Y005550D01*
X009562Y005489D01*
X009674Y005377D01*
X009732Y005237D01*
X009827Y005142D01*
X010042Y005142D01*
X010099Y005277D01*
X010211Y005389D01*
X010357Y005450D01*
X010515Y005450D01*
X010662Y005389D01*
X010774Y005277D01*
X010832Y005137D01*
X011377Y004592D01*
X014884Y004592D01*
X014899Y004627D01*
X015011Y004739D01*
X015157Y004800D01*
X015315Y004800D01*
X015462Y004739D01*
X015574Y004627D01*
X015634Y004481D01*
X015634Y004342D01*
X016004Y004342D01*
X016129Y004290D01*
X016224Y004194D01*
X016227Y004192D01*
X016401Y004192D01*
X016388Y004222D01*
X016388Y004381D01*
X016449Y004527D01*
X016561Y004639D01*
X016707Y004700D01*
X016865Y004700D01*
X017012Y004639D01*
X017124Y004527D01*
X017182Y004387D01*
X017427Y004142D01*
X020795Y004142D01*
X022398Y005744D01*
X022398Y005744D01*
X022493Y005840D01*
X022618Y005892D01*
X023654Y005892D01*
X023779Y005840D01*
X023979Y005640D01*
X024074Y005544D01*
X024126Y005419D01*
X024126Y005371D01*
X024184Y005231D01*
X024184Y005072D01*
X024124Y004926D01*
X024012Y004814D01*
X023865Y004753D01*
X023737Y004753D01*
X023766Y004737D01*
X023972Y004531D01*
X024117Y004279D01*
X024193Y003997D01*
X024193Y003706D01*
X024117Y003424D01*
X023972Y003172D01*
X023766Y002966D01*
X023513Y002820D01*
X023232Y002745D01*
X022940Y002745D01*
X022659Y002820D01*
X022406Y002966D01*
X022200Y003172D01*
X022055Y003424D01*
X021979Y003706D01*
X021979Y003964D01*
X021324Y003309D01*
X021229Y003213D01*
X021104Y003162D01*
X021034Y003162D01*
X021034Y003022D01*
X020974Y002876D01*
X020862Y002764D01*
X020715Y002703D01*
X020557Y002703D01*
X020417Y002762D01*
X016556Y002762D01*
X016415Y002703D01*
X016257Y002703D01*
X016111Y002764D01*
X015999Y002876D01*
X015938Y003022D01*
X015938Y003181D01*
X015999Y003327D01*
X016111Y003439D01*
X016257Y003500D01*
X016415Y003500D01*
X016556Y003442D01*
X016565Y003442D01*
X016511Y003464D01*
X016463Y003512D01*
X016080Y003512D01*
X016024Y003376D01*
X015912Y003264D01*
X015771Y003206D01*
X015184Y002618D01*
X030465Y002618D01*
X030465Y008284D01*
X030124Y008284D01*
X030316Y008092D01*
X030316Y007611D01*
X029976Y007272D01*
X029496Y007272D01*
X029156Y007611D01*
X029156Y008092D01*
X029348Y008284D01*
X028095Y008284D01*
X028220Y008158D01*
X028316Y007927D01*
X028316Y007676D01*
X028220Y007445D01*
X028043Y007267D01*
X028011Y007254D01*
X027848Y007092D01*
X028804Y007092D01*
X028837Y007125D01*
X028999Y007192D01*
X029174Y007192D01*
X029335Y007125D01*
X029709Y006751D01*
X029776Y006589D01*
X029776Y003564D01*
X029709Y003402D01*
X029585Y003279D01*
X029335Y003029D01*
X029174Y002962D01*
X027799Y002962D01*
X027637Y003029D01*
X027578Y003087D01*
X027574Y003076D01*
X027462Y002964D01*
X027315Y002903D01*
X027157Y002903D01*
X027011Y002964D01*
X026899Y003076D01*
X026838Y003222D01*
X026838Y003262D01*
X026468Y003262D01*
X026343Y003313D01*
X026248Y003409D01*
X026148Y003509D01*
X026096Y003634D01*
X026096Y003849D01*
X026061Y003864D01*
X026013Y003912D01*
X025226Y003912D01*
X025226Y003650D01*
X025265Y003650D01*
X025412Y003589D01*
X025524Y003477D01*
X025584Y003331D01*
X025584Y003172D01*
X025524Y003026D01*
X025412Y002914D01*
X025265Y002853D01*
X025107Y002853D01*
X024961Y002914D01*
X024959Y002915D01*
X024843Y002963D01*
X024693Y003113D01*
X024598Y003209D01*
X024546Y003334D01*
X024546Y004169D01*
X024598Y004294D01*
X024748Y004444D01*
X024843Y004540D01*
X024968Y004592D01*
X026187Y004592D01*
X026207Y004600D01*
X026365Y004600D01*
X026512Y004539D01*
X026624Y004427D01*
X026682Y004287D01*
X026724Y004244D01*
X026776Y004119D01*
X026776Y003942D01*
X026895Y003942D01*
X027348Y004394D01*
X027443Y004490D01*
X027568Y004542D01*
X028395Y004542D01*
X028446Y004592D01*
X028446Y004782D01*
X028388Y004922D01*
X028388Y005081D01*
X028449Y005227D01*
X028561Y005339D01*
X028707Y005400D01*
X028865Y005400D01*
X028896Y005387D01*
X028896Y006319D01*
X028804Y006412D01*
X027776Y006412D01*
X027776Y005221D01*
X027834Y005081D01*
X027834Y004922D01*
X027774Y004776D01*
X027662Y004664D01*
X027515Y004603D01*
X027357Y004603D01*
X027211Y004664D01*
X027099Y004776D01*
X027038Y004922D01*
X027038Y005081D01*
X027096Y005221D01*
X027096Y006662D01*
X022918Y006662D01*
X020508Y004251D01*
X020346Y004184D01*
X018271Y004184D01*
X018109Y004251D01*
X018076Y004284D01*
X017889Y004284D01*
X017815Y004253D01*
X017657Y004253D01*
X017511Y004314D01*
X017399Y004426D01*
X017338Y004572D01*
X017338Y004731D01*
X017399Y004877D01*
X017511Y004989D01*
X017657Y005050D01*
X017815Y005050D01*
X017919Y005007D01*
X017919Y005162D01*
X017668Y005162D01*
X017559Y005052D01*
X017435Y004929D01*
X017274Y004862D01*
X016149Y004862D01*
X015987Y004929D01*
X014954Y005962D01*
X014249Y005962D01*
X014087Y006029D01*
X013963Y006152D01*
X013896Y006314D01*
X013896Y006489D01*
X013963Y006651D01*
X014087Y006775D01*
X014249Y006842D01*
X015224Y006842D01*
X015385Y006775D01*
X015509Y006651D01*
X016388Y005772D01*
X016388Y005831D01*
X016446Y005971D01*
X016446Y007219D01*
X016329Y007267D01*
X016186Y007411D01*
X016043Y007267D01*
X015811Y007172D01*
X015561Y007172D01*
X015329Y007267D01*
X015186Y007411D01*
X015043Y007267D01*
X014811Y007172D01*
X014561Y007172D01*
X014329Y007267D01*
X014186Y007411D01*
X014043Y007267D01*
X013811Y007172D01*
X013561Y007172D01*
X013329Y007267D01*
X013186Y007411D01*
X013043Y007267D01*
X012811Y007172D01*
X012561Y007172D01*
X012329Y007267D01*
X012152Y007445D01*
X012144Y007463D01*
X012121Y007430D01*
X012057Y007367D01*
X011985Y007314D01*
X011905Y007273D01*
X011820Y007246D01*
X011731Y007232D01*
X011686Y007232D01*
X011686Y007802D01*
X011686Y007802D01*
X011116Y007802D01*
X011116Y007846D01*
X011130Y007935D01*
X011158Y008020D01*
X011199Y008100D01*
X011251Y008173D01*
X011315Y008236D01*
X011380Y008284D01*
X007939Y008284D01*
X008156Y008067D01*
X008156Y007852D01*
X007636Y007852D01*
X007636Y007852D01*
X007116Y007852D01*
X007116Y008067D01*
X007333Y008284D01*
X001153Y008284D01*
X001153Y008264D02*
X007313Y008264D01*
X007116Y008026D02*
X004313Y008026D01*
X004213Y008083D02*
X003932Y008158D01*
X003640Y008158D01*
X003359Y008083D01*
X003106Y007937D01*
X002900Y007731D01*
X002755Y007479D01*
X002679Y007197D01*
X002679Y006906D01*
X002755Y006624D01*
X002900Y006372D01*
X003106Y006166D01*
X003359Y006020D01*
X003640Y005945D01*
X003932Y005945D01*
X004213Y006020D01*
X004466Y006166D01*
X004672Y006372D01*
X004817Y006624D01*
X004893Y006906D01*
X004893Y007197D01*
X004817Y007479D01*
X004672Y007731D01*
X004466Y007937D01*
X004213Y008083D01*
X004616Y007787D02*
X007116Y007787D01*
X007116Y007852D02*
X007116Y007636D01*
X007421Y007332D01*
X007636Y007332D01*
X007636Y007852D01*
X007636Y007852D01*
X007116Y007852D01*
X007636Y007852D02*
X007636Y007852D01*
X008156Y007852D01*
X008156Y007636D01*
X007851Y007332D01*
X007636Y007332D01*
X007636Y007852D01*
X007636Y007787D02*
X007636Y007787D01*
X007636Y007549D02*
X007636Y007549D01*
X007204Y007549D02*
X004777Y007549D01*
X004863Y007310D02*
X011395Y007310D01*
X011387Y007314D02*
X011467Y007273D01*
X011553Y007246D01*
X011641Y007232D01*
X011686Y007232D01*
X011686Y007802D01*
X011116Y007802D01*
X011116Y007757D01*
X011130Y007668D01*
X011158Y007583D01*
X011199Y007503D01*
X011251Y007430D01*
X011315Y007367D01*
X011387Y007314D01*
X011686Y007310D02*
X011686Y007310D01*
X011686Y007549D02*
X011686Y007549D01*
X011977Y007310D02*
X012287Y007310D01*
X013086Y007310D02*
X013287Y007310D01*
X014086Y007310D02*
X014287Y007310D01*
X014228Y006833D02*
X004873Y006833D01*
X004893Y007072D02*
X016446Y007072D01*
X016446Y006833D02*
X015244Y006833D01*
X015565Y006595D02*
X016446Y006595D01*
X016446Y006356D02*
X015804Y006356D01*
X016042Y006118D02*
X016446Y006118D01*
X016408Y005879D02*
X016281Y005879D01*
X015513Y005402D02*
X010630Y005402D01*
X010821Y005164D02*
X015752Y005164D01*
X015995Y004925D02*
X011043Y004925D01*
X011282Y004687D02*
X014958Y004687D01*
X015514Y004687D02*
X016675Y004687D01*
X016897Y004687D02*
X017338Y004687D01*
X017389Y004448D02*
X017156Y004448D01*
X017359Y004210D02*
X018209Y004210D01*
X017447Y004925D02*
X017427Y004925D01*
X016416Y004448D02*
X015634Y004448D01*
X016209Y004210D02*
X016393Y004210D01*
X016429Y003494D02*
X016481Y003494D01*
X016243Y003494D02*
X016072Y003494D01*
X015969Y003256D02*
X015891Y003256D01*
X015940Y003017D02*
X015582Y003017D01*
X015344Y002779D02*
X016096Y002779D01*
X020408Y004210D02*
X020863Y004210D01*
X020705Y004448D02*
X021102Y004448D01*
X020943Y004687D02*
X021340Y004687D01*
X021182Y004925D02*
X021579Y004925D01*
X021420Y005164D02*
X021817Y005164D01*
X021659Y005402D02*
X022056Y005402D01*
X021897Y005641D02*
X022294Y005641D01*
X022136Y005879D02*
X022588Y005879D01*
X022374Y006118D02*
X027096Y006118D01*
X027096Y005879D02*
X023684Y005879D01*
X023978Y005641D02*
X027096Y005641D01*
X027096Y005402D02*
X024126Y005402D01*
X024184Y005164D02*
X027072Y005164D01*
X027038Y004925D02*
X024123Y004925D01*
X023816Y004687D02*
X027188Y004687D01*
X027402Y004448D02*
X026603Y004448D01*
X026739Y004210D02*
X027163Y004210D01*
X026925Y003971D02*
X026776Y003971D01*
X026096Y003733D02*
X025226Y003733D01*
X025507Y003494D02*
X026163Y003494D01*
X025584Y003256D02*
X026838Y003256D01*
X026958Y003017D02*
X025515Y003017D01*
X024790Y003017D02*
X023817Y003017D01*
X024020Y003256D02*
X024579Y003256D01*
X024546Y003494D02*
X024136Y003494D01*
X024193Y003733D02*
X024546Y003733D01*
X024546Y003971D02*
X024193Y003971D01*
X024136Y004210D02*
X024563Y004210D01*
X024752Y004448D02*
X024020Y004448D01*
X021979Y003733D02*
X021748Y003733D01*
X021509Y003494D02*
X022036Y003494D01*
X022152Y003256D02*
X021271Y003256D01*
X021032Y003017D02*
X022355Y003017D01*
X022814Y002779D02*
X020876Y002779D01*
X023358Y002779D02*
X030465Y002779D01*
X030465Y003017D02*
X029308Y003017D01*
X029562Y003256D02*
X030465Y003256D01*
X030465Y003494D02*
X029747Y003494D01*
X029776Y003733D02*
X030465Y003733D01*
X030465Y003971D02*
X029776Y003971D01*
X029776Y004210D02*
X030465Y004210D01*
X030465Y004448D02*
X029776Y004448D01*
X029776Y004687D02*
X030465Y004687D01*
X030465Y004925D02*
X029776Y004925D01*
X029776Y005164D02*
X030465Y005164D01*
X030465Y005402D02*
X029776Y005402D01*
X029776Y005641D02*
X030465Y005641D01*
X030465Y005879D02*
X029776Y005879D01*
X029776Y006118D02*
X030465Y006118D01*
X030465Y006356D02*
X029776Y006356D01*
X029774Y006595D02*
X030465Y006595D01*
X030465Y006833D02*
X029627Y006833D01*
X029388Y007072D02*
X030465Y007072D01*
X030465Y007310D02*
X030015Y007310D01*
X030253Y007549D02*
X030465Y007549D01*
X030465Y007787D02*
X030316Y007787D01*
X030316Y008026D02*
X030465Y008026D01*
X030465Y008264D02*
X030144Y008264D01*
X029328Y008264D02*
X028115Y008264D01*
X028275Y008026D02*
X029156Y008026D01*
X029156Y007787D02*
X028316Y007787D01*
X028263Y007549D02*
X029219Y007549D01*
X029457Y007310D02*
X028086Y007310D01*
X027096Y006595D02*
X022851Y006595D01*
X022613Y006356D02*
X027096Y006356D01*
X027776Y006356D02*
X028859Y006356D01*
X028896Y006118D02*
X027776Y006118D01*
X027776Y005879D02*
X028896Y005879D01*
X028896Y005641D02*
X027776Y005641D01*
X027776Y005402D02*
X028896Y005402D01*
X028422Y005164D02*
X027800Y005164D01*
X027834Y004925D02*
X028388Y004925D01*
X028446Y004687D02*
X027684Y004687D01*
X027665Y003017D02*
X027515Y003017D01*
X016287Y007310D02*
X016086Y007310D01*
X015287Y007310D02*
X015086Y007310D01*
X013940Y006595D02*
X004800Y006595D01*
X004656Y006356D02*
X013896Y006356D01*
X013998Y006118D02*
X004382Y006118D01*
X004616Y005402D02*
X009024Y005402D01*
X008938Y005164D02*
X004770Y005164D01*
X004781Y004925D02*
X009000Y004925D01*
X009320Y004687D02*
X004702Y004687D01*
X004785Y004448D02*
X009202Y004448D01*
X007931Y004210D02*
X007891Y004210D01*
X009805Y005164D02*
X010052Y005164D01*
X010242Y005402D02*
X009649Y005402D01*
X011175Y007549D02*
X008068Y007549D01*
X008156Y007787D02*
X011116Y007787D01*
X011160Y008026D02*
X008156Y008026D01*
X007959Y008264D02*
X011353Y008264D01*
X011686Y007802D02*
X011686Y007802D01*
X011686Y007787D02*
X011686Y007787D01*
X015036Y005879D02*
X003181Y005879D01*
X003181Y005953D02*
X003181Y005724D01*
X003093Y005513D01*
X002931Y005351D01*
X002720Y005263D01*
X001900Y005263D01*
X001689Y005351D01*
X001527Y005513D01*
X001440Y005724D01*
X001440Y005953D01*
X001527Y006164D01*
X001689Y006326D01*
X001900Y006414D01*
X002720Y006414D01*
X002931Y006326D01*
X003093Y006164D01*
X003181Y005953D01*
X003190Y006118D02*
X003112Y006118D01*
X002916Y006356D02*
X002859Y006356D01*
X002772Y006595D02*
X001153Y006595D01*
X001153Y006833D02*
X002699Y006833D01*
X002679Y007072D02*
X001153Y007072D01*
X001153Y007310D02*
X002710Y007310D01*
X002795Y007549D02*
X001153Y007549D01*
X001153Y007787D02*
X002956Y007787D01*
X003260Y008026D02*
X001153Y008026D01*
X001153Y006356D02*
X001761Y006356D01*
X001508Y006118D02*
X001153Y006118D01*
X001153Y005879D02*
X001440Y005879D01*
X001474Y005641D02*
X001153Y005641D01*
X001153Y005402D02*
X001638Y005402D01*
X001153Y005164D02*
X003633Y005164D01*
X003981Y005402D02*
X002982Y005402D01*
X003146Y005641D02*
X015275Y005641D01*
X002979Y004925D02*
X001153Y004925D01*
X001153Y004687D02*
X002740Y004687D01*
X002596Y004448D02*
X001153Y004448D01*
X001153Y004210D02*
X002596Y004210D01*
X002596Y003971D02*
X001153Y003971D01*
X001153Y003733D02*
X002596Y003733D01*
X001790Y003494D02*
X001153Y003494D01*
X001153Y003256D02*
X001513Y003256D01*
X001440Y003017D02*
X001153Y003017D01*
X001153Y002779D02*
X001469Y002779D01*
X001153Y012461D02*
X001153Y014281D01*
X001288Y014146D01*
X001296Y014143D01*
X001296Y013734D01*
X001348Y013609D01*
X002148Y012809D01*
X002243Y012713D01*
X002368Y012662D01*
X010354Y012662D01*
X010479Y012713D01*
X011027Y013262D01*
X011179Y013262D01*
X011158Y013220D01*
X011130Y013135D01*
X011116Y013046D01*
X011116Y013002D01*
X011686Y013002D01*
X011686Y013002D01*
X011116Y013002D01*
X011116Y012957D01*
X011130Y012868D01*
X011158Y012783D01*
X011199Y012703D01*
X011251Y012630D01*
X011315Y012567D01*
X011387Y012514D01*
X011467Y012473D01*
X011505Y012461D01*
X001153Y012461D01*
X001153Y012557D02*
X011328Y012557D01*
X011154Y012796D02*
X010561Y012796D01*
X010799Y013034D02*
X011116Y013034D01*
X010598Y013794D02*
X010145Y013342D01*
X002577Y013342D01*
X002273Y013646D01*
X002478Y013561D01*
X002762Y013561D01*
X003024Y013669D01*
X003225Y013870D01*
X003333Y014132D01*
X003333Y014185D01*
X003341Y014182D01*
X004171Y014182D01*
X004385Y014270D01*
X004396Y014282D01*
X005676Y014282D01*
X005688Y014270D01*
X005901Y014182D01*
X006731Y014182D01*
X006945Y014270D01*
X007108Y014433D01*
X007111Y014441D01*
X007114Y014433D01*
X007278Y014270D01*
X007491Y014182D01*
X008321Y014182D01*
X008535Y014270D01*
X008546Y014282D01*
X009826Y014282D01*
X009838Y014270D01*
X010051Y014182D01*
X010565Y014182D01*
X010809Y013938D01*
X010693Y013890D01*
X010598Y013794D01*
X010553Y013750D02*
X003105Y013750D01*
X003274Y013988D02*
X010759Y013988D01*
X010315Y013511D02*
X002407Y013511D01*
X001684Y013273D02*
X001153Y013273D01*
X001153Y013034D02*
X001923Y013034D01*
X002161Y012796D02*
X001153Y012796D01*
X001153Y013511D02*
X001446Y013511D01*
X001296Y013750D02*
X001153Y013750D01*
X001153Y013988D02*
X001296Y013988D01*
X001208Y014227D02*
X001153Y014227D01*
X002215Y014876D02*
X002157Y015015D01*
X001984Y015188D01*
X001758Y015282D01*
X001514Y015282D01*
X001288Y015188D01*
X001153Y015053D01*
X001153Y016362D01*
X001162Y016345D01*
X001213Y016274D01*
X001275Y016213D01*
X001345Y016161D01*
X001423Y016122D01*
X001506Y016095D01*
X001592Y016081D01*
X001636Y016081D01*
X001636Y016636D01*
X001636Y017190D01*
X001592Y017190D01*
X001506Y017177D01*
X001423Y017150D01*
X001345Y017110D01*
X001275Y017059D01*
X001213Y016997D01*
X001162Y016926D01*
X001153Y016909D01*
X001153Y018126D01*
X030465Y018126D01*
X030465Y017423D01*
X030456Y017440D01*
X030406Y017510D01*
X030344Y017571D01*
X030274Y017622D01*
X030197Y017661D01*
X030115Y017688D01*
X030029Y017702D01*
X029986Y017702D01*
X029943Y017702D01*
X029857Y017688D01*
X029775Y017661D01*
X029698Y017622D01*
X029628Y017571D01*
X029567Y017510D01*
X029516Y017440D01*
X029476Y017363D01*
X029450Y017280D01*
X029446Y017257D01*
X029263Y017441D01*
X029116Y017502D01*
X023406Y017502D01*
X023259Y017441D01*
X022909Y017091D01*
X022797Y016978D01*
X022736Y016831D01*
X022736Y016222D01*
X022797Y016075D01*
X023236Y015636D01*
X023236Y015122D01*
X023297Y014975D01*
X023409Y014862D01*
X023556Y014802D01*
X023716Y014802D01*
X023863Y014862D01*
X023975Y014975D01*
X024036Y015122D01*
X024036Y015881D01*
X023975Y016028D01*
X023902Y016102D01*
X026570Y016102D01*
X026547Y016078D01*
X025897Y015428D01*
X025836Y015281D01*
X025836Y015122D01*
X025897Y014975D01*
X026009Y014862D01*
X026156Y014802D01*
X026316Y014802D01*
X026463Y014862D01*
X027052Y015452D01*
X028520Y015452D01*
X028497Y015428D01*
X028436Y015281D01*
X028436Y015107D01*
X028434Y015033D01*
X028436Y015028D01*
X028436Y015022D01*
X028464Y014953D01*
X028491Y014884D01*
X028495Y014880D01*
X028497Y014875D01*
X028549Y014823D01*
X029395Y013930D01*
X029397Y013925D01*
X029436Y013886D01*
X029469Y013806D01*
X029641Y013634D01*
X029865Y013542D01*
X030107Y013542D01*
X030332Y013634D01*
X030465Y013768D01*
X030465Y012461D01*
X028027Y012461D01*
X028043Y012467D01*
X028220Y012645D01*
X028316Y012876D01*
X028316Y013127D01*
X028220Y013358D01*
X028043Y013536D01*
X027811Y013632D01*
X027561Y013632D01*
X027329Y013536D01*
X027186Y013392D01*
X027043Y013536D01*
X026811Y013632D01*
X026561Y013632D01*
X026329Y013536D01*
X026186Y013392D01*
X026043Y013536D01*
X025811Y013632D01*
X025561Y013632D01*
X025329Y013536D01*
X025186Y013392D01*
X025043Y013536D01*
X024811Y013632D01*
X024561Y013632D01*
X024329Y013536D01*
X024186Y013392D01*
X024043Y013536D01*
X024014Y013547D01*
X023974Y013644D01*
X022974Y014644D01*
X022879Y014740D01*
X022754Y014792D01*
X021477Y014792D01*
X021226Y015042D01*
X021226Y017319D01*
X021174Y017444D01*
X021079Y017540D01*
X020954Y017592D01*
X019906Y017592D01*
X019765Y017650D01*
X019607Y017650D01*
X019461Y017589D01*
X019349Y017477D01*
X019288Y017331D01*
X019288Y017172D01*
X019349Y017026D01*
X019461Y016914D01*
X019607Y016853D01*
X019765Y016853D01*
X019906Y016912D01*
X020546Y016912D01*
X020546Y014834D01*
X020598Y014709D01*
X021065Y014242D01*
X020427Y014242D01*
X019619Y015050D01*
X019565Y015072D01*
X019558Y015090D01*
X019395Y015253D01*
X019181Y015342D01*
X018351Y015342D01*
X018138Y015253D01*
X018126Y015242D01*
X016846Y015242D01*
X016835Y015253D01*
X016621Y015342D01*
X015791Y015342D01*
X015578Y015253D01*
X015414Y015090D01*
X015411Y015082D01*
X015408Y015090D01*
X015407Y015091D01*
X015420Y015104D01*
X015466Y015216D01*
X015466Y015607D01*
X015448Y015652D01*
X015466Y015696D01*
X015466Y016087D01*
X015420Y016200D01*
X015356Y016263D01*
X015361Y016269D01*
X015398Y016342D01*
X015411Y016382D01*
X015424Y016342D01*
X015461Y016269D01*
X015509Y016203D01*
X015567Y016145D01*
X015634Y016097D01*
X015706Y016060D01*
X015784Y016034D01*
X015865Y016022D01*
X016206Y016022D01*
X016206Y016542D01*
X016206Y016542D01*
X014616Y016542D01*
X014616Y016542D01*
X013796Y016542D01*
X013796Y016582D01*
X013809Y016663D01*
X013834Y016741D01*
X013871Y016814D01*
X013919Y016880D01*
X013951Y016912D01*
X012721Y016912D01*
X012753Y016880D01*
X012801Y016814D01*
X012838Y016741D01*
X012863Y016663D01*
X012876Y016582D01*
X012876Y016542D01*
X012056Y016542D01*
X012056Y016542D01*
X010466Y016542D01*
X010466Y016542D01*
X009646Y016542D01*
X009646Y016582D01*
X009659Y016663D01*
X009684Y016741D01*
X009721Y016814D01*
X009769Y016880D01*
X009801Y016912D01*
X008571Y016912D01*
X008603Y016880D01*
X008651Y016814D01*
X008688Y016741D01*
X008713Y016663D01*
X008726Y016582D01*
X008726Y016542D01*
X007906Y016542D01*
X007906Y016542D01*
X006316Y016542D01*
X006316Y016542D01*
X005496Y016542D01*
X005496Y016582D01*
X005509Y016663D01*
X005534Y016741D01*
X005571Y016814D01*
X005619Y016880D01*
X005651Y016912D01*
X004421Y016912D01*
X004453Y016880D01*
X004501Y016814D01*
X004538Y016741D01*
X004563Y016663D01*
X004576Y016582D01*
X004576Y016542D01*
X003756Y016542D01*
X003756Y016542D01*
X004576Y016542D01*
X004576Y016501D01*
X004563Y016420D01*
X004538Y016342D01*
X004501Y016269D01*
X004453Y016203D01*
X004395Y016145D01*
X004329Y016097D01*
X004256Y016060D01*
X004178Y016034D01*
X004097Y016022D01*
X003756Y016022D01*
X003756Y016542D01*
X003756Y016542D01*
X003756Y016022D01*
X003415Y016022D01*
X003334Y016034D01*
X003256Y016060D01*
X003184Y016097D01*
X003117Y016145D01*
X003059Y016203D01*
X003011Y016269D01*
X002974Y016342D01*
X002956Y016397D01*
X002762Y016316D01*
X002478Y016316D01*
X002216Y016425D01*
X002167Y016475D01*
X002150Y016423D01*
X002110Y016345D01*
X002059Y016274D01*
X001997Y016213D01*
X001927Y016161D01*
X001849Y016122D01*
X001766Y016095D01*
X001680Y016081D01*
X001636Y016081D01*
X001636Y016636D01*
X001636Y016636D01*
X001636Y017190D01*
X001680Y017190D01*
X001766Y017177D01*
X001849Y017150D01*
X001907Y017120D01*
X001907Y017171D01*
X002016Y017433D01*
X002216Y017634D01*
X002478Y017743D01*
X002762Y017743D01*
X003024Y017634D01*
X003225Y017433D01*
X003333Y017171D01*
X003333Y017048D01*
X003334Y017049D01*
X003415Y017062D01*
X003684Y017062D01*
X003638Y017172D01*
X003638Y017331D01*
X003699Y017477D01*
X003811Y017589D01*
X003957Y017650D01*
X004115Y017650D01*
X004256Y017592D01*
X005638Y017592D01*
X005638Y017731D01*
X005699Y017877D01*
X005811Y017989D01*
X005957Y018050D01*
X006115Y018050D01*
X006256Y017992D01*
X009967Y017992D01*
X010107Y018050D01*
X010265Y018050D01*
X010406Y017992D01*
X014117Y017992D01*
X014257Y018050D01*
X014415Y018050D01*
X014556Y017992D01*
X018267Y017992D01*
X018407Y018050D01*
X018565Y018050D01*
X018712Y017989D01*
X018824Y017877D01*
X018884Y017731D01*
X018884Y017572D01*
X018824Y017426D01*
X018712Y017314D01*
X018565Y017253D01*
X018407Y017253D01*
X018267Y017312D01*
X016884Y017312D01*
X016884Y017172D01*
X016824Y017026D01*
X016782Y016984D01*
X016845Y016938D01*
X016903Y016880D01*
X016951Y016814D01*
X016988Y016741D01*
X017013Y016663D01*
X017026Y016582D01*
X017026Y016542D01*
X016206Y016542D01*
X016206Y016542D01*
X015386Y016542D01*
X014616Y016542D01*
X014616Y016542D01*
X013796Y016542D01*
X013796Y016501D01*
X013809Y016420D01*
X013834Y016342D01*
X013863Y016285D01*
X013819Y016242D01*
X013779Y016242D01*
X013779Y016242D01*
X013643Y016242D01*
X013624Y016234D01*
X013605Y016242D01*
X013544Y016242D01*
X013484Y016242D01*
X013484Y016242D01*
X013394Y016242D01*
X013375Y016234D01*
X013356Y016242D01*
X013234Y016242D01*
X013205Y016230D01*
X013175Y016242D01*
X013054Y016242D01*
X013035Y016234D01*
X013016Y016242D01*
X012955Y016242D01*
X012895Y016242D01*
X012895Y016242D01*
X012781Y016242D01*
X012801Y016269D01*
X012838Y016342D01*
X012863Y016420D01*
X012876Y016501D01*
X012876Y016542D01*
X012056Y016542D01*
X012056Y016542D01*
X011236Y016542D01*
X010466Y016542D01*
X010466Y016542D01*
X009646Y016542D01*
X009646Y016501D01*
X009659Y016420D01*
X009684Y016342D01*
X009721Y016269D01*
X009769Y016203D01*
X009827Y016145D01*
X009894Y016097D01*
X009966Y016060D01*
X010044Y016034D01*
X010091Y016027D01*
X010060Y015952D01*
X010060Y015897D01*
X009997Y015897D01*
X009888Y015852D01*
X009805Y015852D01*
X009741Y015825D01*
X009677Y015852D01*
X009526Y015852D01*
X009465Y015852D01*
X009439Y015841D01*
X009353Y015805D01*
X009350Y015802D01*
X009347Y015805D01*
X009235Y015852D01*
X009084Y015852D01*
X009023Y015852D01*
X009004Y015844D01*
X008985Y015852D01*
X008683Y015852D01*
X008591Y015813D01*
X008498Y015852D01*
X008348Y015852D01*
X008287Y015852D01*
X008287Y015852D01*
X008287Y015852D01*
X008261Y015841D01*
X008174Y015805D01*
X008090Y015847D01*
X007969Y015855D01*
X007853Y015817D01*
X007762Y015737D01*
X007708Y015629D01*
X007699Y015508D01*
X007715Y015458D01*
X007714Y015456D01*
X007702Y015427D01*
X007702Y015382D01*
X007702Y015345D01*
X007702Y015342D01*
X007491Y015342D01*
X007278Y015253D01*
X007114Y015090D01*
X007111Y015082D01*
X007108Y015090D01*
X006945Y015253D01*
X006731Y015342D01*
X005901Y015342D01*
X005688Y015253D01*
X005676Y015242D01*
X004396Y015242D01*
X004385Y015253D01*
X004171Y015342D01*
X003341Y015342D01*
X003128Y015253D01*
X002964Y015090D01*
X002898Y014930D01*
X002762Y014987D01*
X002478Y014987D01*
X002216Y014878D01*
X002215Y014876D01*
X002188Y014942D02*
X002371Y014942D01*
X001992Y015181D02*
X003055Y015181D01*
X002903Y014942D02*
X002870Y014942D01*
X004280Y014227D02*
X005792Y014227D01*
X006840Y014227D02*
X007382Y014227D01*
X008430Y014227D02*
X009942Y014227D01*
X007702Y015382D02*
X007702Y015382D01*
X007702Y015419D02*
X001153Y015419D01*
X001153Y015181D02*
X001280Y015181D01*
X001153Y015658D02*
X007722Y015658D01*
X007702Y015427D02*
X007702Y015427D01*
X007702Y015427D01*
X007205Y015181D02*
X007017Y015181D01*
X008174Y015805D02*
X008174Y015805D01*
X008174Y015805D01*
X008174Y015805D01*
X008247Y016022D02*
X007906Y016022D01*
X007906Y016542D01*
X007906Y016542D01*
X007086Y016542D01*
X006316Y016542D01*
X006316Y016542D01*
X005496Y016542D01*
X005496Y016501D01*
X005509Y016420D01*
X005534Y016342D01*
X005571Y016269D01*
X005619Y016203D01*
X005677Y016145D01*
X005744Y016097D01*
X005816Y016060D01*
X005894Y016034D01*
X005975Y016022D01*
X006316Y016022D01*
X006316Y016542D01*
X006316Y016542D01*
X006316Y016022D01*
X006657Y016022D01*
X006738Y016034D01*
X006816Y016060D01*
X006889Y016097D01*
X006955Y016145D01*
X007013Y016203D01*
X007061Y016269D01*
X007098Y016342D01*
X007111Y016382D01*
X007124Y016342D01*
X007161Y016269D01*
X007209Y016203D01*
X007267Y016145D01*
X007334Y016097D01*
X007406Y016060D01*
X007484Y016034D01*
X007565Y016022D01*
X007906Y016022D01*
X007906Y016542D01*
X008726Y016542D01*
X008726Y016501D01*
X008713Y016420D01*
X008688Y016342D01*
X008651Y016269D01*
X008603Y016203D01*
X008545Y016145D01*
X008479Y016097D01*
X008406Y016060D01*
X008328Y016034D01*
X008247Y016022D01*
X008531Y016135D02*
X009842Y016135D01*
X009995Y015896D02*
X001153Y015896D01*
X001153Y016135D02*
X001398Y016135D01*
X001636Y016135D02*
X001636Y016135D01*
X001874Y016135D02*
X003132Y016135D01*
X002964Y016373D02*
X002899Y016373D01*
X002342Y016373D02*
X002125Y016373D01*
X001636Y016373D02*
X001636Y016373D01*
X001636Y016612D02*
X001636Y016612D01*
X001636Y016636D02*
X001636Y016636D01*
X001636Y016850D02*
X001636Y016850D01*
X001636Y017089D02*
X001636Y017089D01*
X001316Y017089D02*
X001153Y017089D01*
X001153Y017327D02*
X001972Y017327D01*
X002148Y017566D02*
X001153Y017566D01*
X001153Y017804D02*
X005668Y017804D01*
X005940Y018043D02*
X001153Y018043D01*
X003093Y017566D02*
X003787Y017566D01*
X003638Y017327D02*
X003269Y017327D01*
X003333Y017089D02*
X003673Y017089D01*
X004475Y016850D02*
X005597Y016850D01*
X005501Y016612D02*
X004571Y016612D01*
X004548Y016373D02*
X005524Y016373D01*
X005692Y016135D02*
X004381Y016135D01*
X003756Y016135D02*
X003756Y016135D01*
X003756Y016373D02*
X003756Y016373D01*
X006316Y016373D02*
X006316Y016373D01*
X006316Y016135D02*
X006316Y016135D01*
X006941Y016135D02*
X007282Y016135D01*
X007114Y016373D02*
X007108Y016373D01*
X007906Y016373D02*
X007906Y016373D01*
X007906Y016542D02*
X007906Y016542D01*
X007906Y016135D02*
X007906Y016135D01*
X008698Y016373D02*
X009674Y016373D01*
X009651Y016612D02*
X008721Y016612D01*
X008625Y016850D02*
X009747Y016850D01*
X009465Y015852D02*
X009465Y015852D01*
X009465Y015852D01*
X009353Y015805D02*
X009353Y015805D01*
X009353Y015805D01*
X009023Y015852D02*
X009023Y015852D01*
X009023Y015852D01*
X012848Y016373D02*
X013824Y016373D01*
X013863Y016285D02*
X013863Y016285D01*
X013605Y016242D02*
X013605Y016242D01*
X013605Y016242D01*
X013016Y016242D02*
X013016Y016242D01*
X013016Y016242D01*
X012871Y016612D02*
X013801Y016612D01*
X013897Y016850D02*
X012775Y016850D01*
X014240Y018043D02*
X010282Y018043D01*
X010090Y018043D02*
X006132Y018043D01*
X014432Y018043D02*
X018390Y018043D01*
X018582Y018043D02*
X030465Y018043D01*
X030465Y017804D02*
X018854Y017804D01*
X018881Y017566D02*
X019437Y017566D01*
X019288Y017327D02*
X018725Y017327D01*
X018766Y017062D02*
X018425Y017062D01*
X018344Y017049D01*
X018266Y017023D01*
X018194Y016986D01*
X018127Y016938D01*
X018069Y016880D01*
X018021Y016814D01*
X017984Y016741D01*
X017959Y016663D01*
X017946Y016582D01*
X017946Y016542D01*
X018766Y016542D01*
X018766Y017062D01*
X018766Y016542D01*
X018766Y016542D01*
X018766Y016542D01*
X019586Y016542D01*
X019586Y016582D01*
X019573Y016663D01*
X019548Y016741D01*
X019511Y016814D01*
X019463Y016880D01*
X019405Y016938D01*
X019339Y016986D01*
X019266Y017023D01*
X019188Y017049D01*
X019107Y017062D01*
X018766Y017062D01*
X018766Y016850D02*
X018766Y016850D01*
X018766Y016612D02*
X018766Y016612D01*
X018766Y016542D02*
X018766Y016542D01*
X017946Y016542D01*
X017946Y016501D01*
X017959Y016420D01*
X017984Y016342D01*
X018021Y016269D01*
X018069Y016203D01*
X018127Y016145D01*
X018194Y016097D01*
X018266Y016060D01*
X018344Y016034D01*
X018425Y016022D01*
X018766Y016022D01*
X018766Y016542D01*
X019586Y016542D01*
X019586Y016501D01*
X019573Y016420D01*
X019548Y016342D01*
X019511Y016269D01*
X019463Y016203D01*
X019405Y016145D01*
X019339Y016097D01*
X019266Y016060D01*
X019188Y016034D01*
X019107Y016022D01*
X018766Y016022D01*
X018766Y016542D01*
X018766Y016542D01*
X018766Y016373D02*
X018766Y016373D01*
X018766Y016135D02*
X018766Y016135D01*
X019391Y016135D02*
X020546Y016135D01*
X020546Y015896D02*
X015466Y015896D01*
X015450Y015658D02*
X020546Y015658D01*
X020546Y015419D02*
X015466Y015419D01*
X015451Y015181D02*
X015505Y015181D01*
X015447Y016135D02*
X015582Y016135D01*
X016206Y016135D02*
X016206Y016135D01*
X016206Y016022D02*
X016547Y016022D01*
X016628Y016034D01*
X016706Y016060D01*
X016779Y016097D01*
X016845Y016145D01*
X016903Y016203D01*
X016951Y016269D01*
X016988Y016342D01*
X017013Y016420D01*
X017026Y016501D01*
X017026Y016542D01*
X016206Y016542D01*
X016206Y016542D01*
X016206Y016022D01*
X016206Y016373D02*
X016206Y016373D01*
X016831Y016135D02*
X018142Y016135D01*
X017974Y016373D02*
X016998Y016373D01*
X017021Y016612D02*
X017951Y016612D01*
X018047Y016850D02*
X016925Y016850D01*
X016849Y017089D02*
X019323Y017089D01*
X019485Y016850D02*
X020546Y016850D01*
X020546Y016612D02*
X019581Y016612D01*
X019558Y016373D02*
X020546Y016373D01*
X021226Y016373D02*
X022736Y016373D01*
X022736Y016612D02*
X021226Y016612D01*
X021226Y016850D02*
X022744Y016850D01*
X022907Y017089D02*
X021226Y017089D01*
X021223Y017327D02*
X023146Y017327D01*
X023486Y017102D02*
X023136Y016752D01*
X023136Y016302D01*
X023636Y015802D01*
X023636Y015402D01*
X023636Y015202D01*
X023236Y015181D02*
X021226Y015181D01*
X021226Y015419D02*
X023236Y015419D01*
X023214Y015658D02*
X021226Y015658D01*
X021226Y015896D02*
X022976Y015896D01*
X022772Y016135D02*
X021226Y016135D01*
X020546Y015181D02*
X019467Y015181D01*
X019726Y014942D02*
X020546Y014942D01*
X020603Y014704D02*
X019965Y014704D01*
X020203Y014465D02*
X020842Y014465D01*
X021326Y014942D02*
X023330Y014942D01*
X023942Y014942D02*
X025930Y014942D01*
X025836Y015181D02*
X024036Y015181D01*
X024036Y015419D02*
X025893Y015419D01*
X026126Y015658D02*
X024036Y015658D01*
X024030Y015896D02*
X026365Y015896D01*
X026886Y015852D02*
X028986Y015852D01*
X029686Y015152D01*
X029986Y015152D01*
X029736Y014152D02*
X028836Y015102D01*
X028836Y015202D01*
X028436Y015181D02*
X026781Y015181D01*
X027019Y015419D02*
X028493Y015419D01*
X028469Y014942D02*
X026542Y014942D01*
X026236Y015202D02*
X026886Y015852D01*
X026186Y016502D02*
X028786Y016502D01*
X029036Y017102D02*
X029986Y016152D01*
X029986Y017152D02*
X029986Y017702D01*
X029986Y017152D01*
X029986Y017152D01*
X029986Y017327D02*
X029986Y017327D01*
X029986Y017566D02*
X029986Y017566D01*
X029622Y017566D02*
X021016Y017566D01*
X023486Y017102D02*
X029036Y017102D01*
X029376Y017327D02*
X029465Y017327D01*
X030350Y017566D02*
X030465Y017566D01*
X026186Y016502D02*
X023586Y016502D01*
X022915Y014704D02*
X028662Y014704D01*
X028888Y014465D02*
X023153Y014465D01*
X022974Y014644D02*
X022974Y014644D01*
X023392Y014227D02*
X029114Y014227D01*
X029340Y013988D02*
X023630Y013988D01*
X023869Y013750D02*
X029525Y013750D01*
X029736Y014152D02*
X029986Y014152D01*
X030447Y013750D02*
X030465Y013750D01*
X030465Y013511D02*
X028068Y013511D01*
X028256Y013273D02*
X030465Y013273D01*
X030465Y013034D02*
X028316Y013034D01*
X028283Y012796D02*
X030465Y012796D01*
X030465Y012557D02*
X028133Y012557D01*
X027305Y013511D02*
X027068Y013511D01*
X026305Y013511D02*
X026068Y013511D01*
X025305Y013511D02*
X025068Y013511D01*
X024305Y013511D02*
X024068Y013511D01*
X015414Y016373D02*
X015408Y016373D01*
D25*
X018336Y005374D02*
X018359Y005374D01*
X018359Y005202D01*
D26*
X035148Y012541D02*
X035148Y013670D01*
X035218Y013600D01*
X035457Y013502D01*
X035715Y013502D01*
X035954Y013600D01*
X036137Y013783D01*
X036236Y014022D01*
X036236Y014281D01*
X036137Y014520D01*
X036005Y014652D01*
X036137Y014783D01*
X036236Y015022D01*
X036236Y015281D01*
X036137Y015520D01*
X035990Y015667D01*
X035996Y015671D01*
X036067Y015741D01*
X036125Y015821D01*
X036170Y015910D01*
X036201Y016004D01*
X036216Y016102D01*
X036216Y016152D01*
X036216Y016201D01*
X036201Y016299D01*
X036170Y016393D01*
X036125Y016482D01*
X036067Y016562D01*
X035996Y016632D01*
X035990Y016637D01*
X036137Y016783D01*
X036236Y017022D01*
X036236Y017281D01*
X036137Y017520D01*
X035954Y017703D01*
X035715Y017802D01*
X035457Y017802D01*
X035218Y017703D01*
X035148Y017633D01*
X035148Y018046D01*
X039866Y018046D01*
X039866Y012541D01*
X035148Y012541D01*
X035148Y012663D02*
X039866Y012663D01*
X039866Y013061D02*
X035148Y013061D01*
X035148Y013460D02*
X039866Y013460D01*
X039866Y013858D02*
X036168Y013858D01*
X036236Y014257D02*
X039866Y014257D01*
X039866Y014655D02*
X036009Y014655D01*
X036236Y015054D02*
X039866Y015054D01*
X039866Y015452D02*
X036165Y015452D01*
X036140Y015851D02*
X039866Y015851D01*
X039866Y016249D02*
X036208Y016249D01*
X036216Y016152D02*
X035586Y016152D01*
X035586Y016152D01*
X036216Y016152D01*
X036001Y016648D02*
X039866Y016648D01*
X039866Y017046D02*
X036236Y017046D01*
X036168Y017445D02*
X039866Y017445D01*
X039866Y017843D02*
X035148Y017843D01*
X022086Y017802D02*
X019486Y017802D01*
X018766Y017082D01*
X018766Y016542D01*
X016206Y016542D01*
X014616Y016542D01*
X012056Y016542D01*
X010466Y016542D01*
X007906Y016542D01*
X006316Y016542D01*
X003756Y016542D01*
X003746Y016552D01*
X003386Y016552D01*
X002836Y016002D01*
X002270Y016002D01*
X001636Y016636D01*
X003756Y014762D02*
X006316Y014762D01*
X007906Y014762D02*
X010466Y014762D01*
X012056Y014762D02*
X014616Y014762D01*
X016206Y014762D02*
X018766Y014762D01*
D27*
X022086Y017802D03*
D28*
X038936Y015652D03*
D29*
X023086Y003852D03*
X003786Y007052D03*
M02*
