%
M48
M72
T01C0.0118
T02C0.0197
T03C0.0236
T04C0.0276
T05C0.0315
T06C0.0394
T07C0.0400
T08C0.0433
T09C0.0472
T10C0.1260
%
T01
X7586Y3952
X8236Y3952
X8636Y4552
X9686Y4452
X10436Y5052
X9336Y5152
X12836Y2752
X15686Y3602
X16336Y3102
X17086Y3502
X16736Y3802
X16786Y4302
X17436Y4302
X17736Y4652
X17729Y5109
X18336Y5374
X18359Y4624
X18036Y4152
X20636Y3102
X23186Y5152
X23786Y5152
X25036Y6352
X27436Y5002
X28786Y5002
X28886Y3852
X27886Y3402
X27236Y3302
X26286Y4202
X25186Y3252
X29086Y6752
X16786Y5752
X14786Y4552
X15236Y4402
X14336Y6402
X23636Y15202
X23586Y16502
X26186Y16502
X26236Y15202
X28786Y16502
X28836Y15202
X19686Y17252
X18486Y17652
X16486Y17252
X14336Y17652
X12336Y17252
X10186Y17652
X8186Y17252
X6036Y17652
X4036Y17252
T02
X4886Y13802
X1636Y13152
X2186Y7352
X21336Y3202
X27036Y5252
X27586Y2952
T03
X22086Y17802
T04
X4298Y5031
X3826Y4716
X4298Y4402
X3826Y4087
X4298Y3772
T05
X1636Y14667
X1636Y16636
T06
X2310Y2965
X2310Y5839
X11686Y7802
X12686Y7802
X13686Y7802
X14686Y7802
X15686Y7802
X16686Y7802
X17686Y7802
X18686Y7802
X19686Y7802
X20686Y7802
X21686Y7802
X22686Y7802
X23686Y7802
X24686Y7802
X25686Y7802
X26686Y7802
X27686Y7802
X27686Y13002
X26686Y13002
X25686Y13002
X24686Y13002
X23686Y13002
X22686Y13002
X21686Y13002
X20686Y13002
X19686Y13002
X18686Y13002
X17686Y13002
X16686Y13002
X15686Y13002
X14686Y13002
X13686Y13002
X12686Y13002
X11686Y13002
X29986Y14152
X29986Y15152
X29986Y16152
X29986Y17152
X35586Y17152
X35586Y16152
X35586Y15152
X35586Y14152
T07
X29736Y7852
X18766Y14762
X16206Y14762
X14616Y14762
X12056Y14762
X10466Y14762
X7906Y14762
X6316Y14762
X3756Y14762
X3756Y16542
X6316Y16542
X7906Y16542
X10466Y16542
X12056Y16542
X14616Y16542
X16206Y16542
X18766Y16542
X7636Y7852
T08
X38936Y15652
T09
X2620Y17029
X2620Y14274
T10
X3786Y7052
X23086Y3852
M30
