G75*
G70*
%OFA0B0*%
%FSLAX24Y24*%
%IPPOS*%
%LPD*%
%AMOC8*
5,1,8,0,0,1.08239X$1,22.5*
%
%ADD10C,0.0100*%
%ADD11C,0.0050*%
%ADD12C,0.0040*%
%ADD13C,0.0060*%
%ADD14C,0.0080*%
%ADD15C,0.0348*%
%ADD16C,0.0030*%
%ADD17C,0.0118*%
%ADD18C,0.0020*%
D10*
X038036Y014702D02*
X038436Y015052D01*
X038436Y016252D02*
X038036Y016602D01*
X038512Y016852D02*
X038514Y016881D01*
X038520Y016910D01*
X038529Y016938D01*
X038542Y016964D01*
X038558Y016988D01*
X038578Y017010D01*
X038600Y017030D01*
X038624Y017046D01*
X038650Y017059D01*
X038678Y017068D01*
X038707Y017074D01*
X038736Y017076D01*
X038765Y017074D01*
X038794Y017068D01*
X038822Y017059D01*
X038848Y017046D01*
X038872Y017030D01*
X038894Y017010D01*
X038914Y016988D01*
X038930Y016964D01*
X038943Y016938D01*
X038952Y016910D01*
X038958Y016881D01*
X038960Y016852D01*
X038958Y016823D01*
X038952Y016794D01*
X038943Y016766D01*
X038930Y016740D01*
X038914Y016716D01*
X038894Y016694D01*
X038872Y016674D01*
X038848Y016658D01*
X038822Y016645D01*
X038794Y016636D01*
X038765Y016630D01*
X038736Y016628D01*
X038707Y016630D01*
X038678Y016636D01*
X038650Y016645D01*
X038624Y016658D01*
X038600Y016674D01*
X038578Y016694D01*
X038558Y016716D01*
X038542Y016740D01*
X038529Y016766D01*
X038520Y016794D01*
X038514Y016823D01*
X038512Y016852D01*
D11*
X037286Y013577D02*
X037286Y013307D01*
X037241Y013307D02*
X037332Y013307D01*
X037438Y013352D02*
X037483Y013307D01*
X037618Y013307D01*
X037618Y013261D02*
X037618Y013487D01*
X037483Y013487D01*
X037438Y013442D01*
X037438Y013352D01*
X037528Y013216D02*
X037573Y013216D01*
X037618Y013261D01*
X037733Y013352D02*
X037733Y013442D01*
X037778Y013487D01*
X037868Y013487D01*
X037913Y013442D01*
X037913Y013397D01*
X037733Y013397D01*
X037733Y013352D02*
X037778Y013307D01*
X037868Y013307D01*
X038027Y013352D02*
X038072Y013307D01*
X038207Y013307D01*
X038207Y013487D01*
X038322Y013442D02*
X038367Y013487D01*
X038502Y013487D01*
X038457Y013397D02*
X038367Y013397D01*
X038322Y013442D01*
X038322Y013307D02*
X038457Y013307D01*
X038502Y013352D01*
X038457Y013397D01*
X038616Y013397D02*
X038797Y013397D01*
X038797Y013442D01*
X038752Y013487D01*
X038662Y013487D01*
X038616Y013442D01*
X038616Y013352D01*
X038662Y013307D01*
X038752Y013307D01*
X038027Y013352D02*
X038027Y013487D01*
X037868Y013097D02*
X037733Y012962D01*
X037913Y012962D01*
X037868Y012827D02*
X037868Y013097D01*
X037618Y013052D02*
X037618Y013007D01*
X037573Y012962D01*
X037483Y012962D01*
X037438Y013007D01*
X037438Y013052D01*
X037483Y013097D01*
X037573Y013097D01*
X037618Y013052D01*
X037573Y012962D02*
X037618Y012917D01*
X037618Y012872D01*
X037573Y012827D01*
X037483Y012827D01*
X037438Y012872D01*
X037438Y012917D01*
X037483Y012962D01*
X037323Y013052D02*
X037278Y013097D01*
X037188Y013097D01*
X037143Y013052D01*
X037143Y012872D01*
X037188Y012827D01*
X037278Y012827D01*
X037323Y012872D01*
X037041Y012872D02*
X037041Y012827D01*
X036996Y012827D01*
X036996Y012872D01*
X037041Y012872D01*
X036885Y013007D02*
X036840Y013007D01*
X036750Y012917D01*
X036750Y012827D02*
X036750Y013007D01*
X036636Y012962D02*
X036636Y012917D01*
X036456Y012917D01*
X036456Y012962D02*
X036501Y013007D01*
X036591Y013007D01*
X036636Y012962D01*
X036591Y012827D02*
X036501Y012827D01*
X036456Y012872D01*
X036456Y012962D01*
X036341Y012917D02*
X036341Y013097D01*
X036161Y013097D02*
X036161Y012917D01*
X036251Y012827D01*
X036341Y012917D01*
X036296Y013307D02*
X036161Y013307D01*
X036161Y013577D01*
X036296Y013577D01*
X036341Y013532D01*
X036341Y013487D01*
X036296Y013442D01*
X036161Y013442D01*
X036296Y013442D02*
X036341Y013397D01*
X036341Y013352D01*
X036296Y013307D01*
X036456Y013352D02*
X036456Y013442D01*
X036501Y013487D01*
X036591Y013487D01*
X036636Y013442D01*
X036636Y013397D01*
X036456Y013397D01*
X036456Y013352D02*
X036501Y013307D01*
X036591Y013307D01*
X036795Y013352D02*
X036840Y013307D01*
X036795Y013352D02*
X036795Y013532D01*
X036750Y013487D02*
X036840Y013487D01*
X036947Y013442D02*
X036992Y013487D01*
X037082Y013487D01*
X037127Y013442D01*
X037127Y013397D01*
X036947Y013397D01*
X036947Y013352D02*
X036947Y013442D01*
X036947Y013352D02*
X036992Y013307D01*
X037082Y013307D01*
X037241Y013577D02*
X037286Y013577D01*
X030252Y007247D02*
X030252Y006797D01*
X030102Y006797D02*
X030402Y006797D01*
X030102Y007097D02*
X030252Y007247D01*
X029942Y007172D02*
X029942Y007022D01*
X029867Y006947D01*
X029641Y006947D01*
X029641Y006797D02*
X029641Y007247D01*
X029867Y007247D01*
X029942Y007172D01*
X029481Y007247D02*
X029331Y007247D01*
X029406Y007247D02*
X029406Y006872D01*
X029331Y006797D01*
X029256Y006797D01*
X029181Y006872D01*
X019547Y015427D02*
X019547Y015877D01*
X019321Y015652D01*
X019622Y015652D01*
X019161Y015577D02*
X019161Y015502D01*
X019086Y015427D01*
X018936Y015427D01*
X018861Y015502D01*
X018936Y015652D02*
X019086Y015652D01*
X019161Y015577D01*
X019161Y015802D02*
X019086Y015877D01*
X018936Y015877D01*
X018861Y015802D01*
X018861Y015727D01*
X018936Y015652D01*
X015472Y015677D02*
X015397Y015602D01*
X015472Y015527D01*
X015472Y015452D01*
X015397Y015377D01*
X015247Y015377D01*
X015171Y015452D01*
X015011Y015452D02*
X014936Y015377D01*
X014786Y015377D01*
X014711Y015452D01*
X014786Y015602D02*
X014936Y015602D01*
X015011Y015527D01*
X015011Y015452D01*
X014786Y015602D02*
X014711Y015677D01*
X014711Y015752D01*
X014786Y015827D01*
X014936Y015827D01*
X015011Y015752D01*
X015171Y015752D02*
X015247Y015827D01*
X015397Y015827D01*
X015472Y015752D01*
X015472Y015677D01*
X015397Y015602D02*
X015322Y015602D01*
X011272Y015727D02*
X010971Y015427D01*
X011272Y015427D01*
X011272Y015727D02*
X011272Y015802D01*
X011197Y015877D01*
X011047Y015877D01*
X010971Y015802D01*
X010811Y015802D02*
X010736Y015877D01*
X010586Y015877D01*
X010511Y015802D01*
X010511Y015727D01*
X010586Y015652D01*
X010736Y015652D01*
X010811Y015577D01*
X010811Y015502D01*
X010736Y015427D01*
X010586Y015427D01*
X010511Y015502D01*
X007122Y015427D02*
X006821Y015427D01*
X006972Y015427D02*
X006972Y015877D01*
X006821Y015727D01*
X006661Y015802D02*
X006586Y015877D01*
X006436Y015877D01*
X006361Y015802D01*
X006361Y015727D01*
X006436Y015652D01*
X006586Y015652D01*
X006661Y015577D01*
X006661Y015502D01*
X006586Y015427D01*
X006436Y015427D01*
X006361Y015502D01*
X001861Y015381D02*
X001861Y015231D01*
X001786Y015156D01*
X001636Y015231D02*
X001636Y015381D01*
X001711Y015456D01*
X001786Y015456D01*
X001861Y015381D01*
X001786Y015616D02*
X001861Y015691D01*
X001861Y015841D01*
X001786Y015916D01*
X001636Y015916D01*
X001561Y015841D01*
X001561Y015766D01*
X001636Y015616D01*
X001411Y015616D01*
X001411Y015916D01*
X001486Y015456D02*
X001411Y015381D01*
X001411Y015231D01*
X001486Y015156D01*
X001561Y015156D01*
X001636Y015231D01*
X005881Y008097D02*
X006031Y008097D01*
X005956Y008097D02*
X005956Y007722D01*
X005881Y007647D01*
X005806Y007647D01*
X005731Y007722D01*
X006191Y007797D02*
X006417Y007797D01*
X006492Y007872D01*
X006492Y008022D01*
X006417Y008097D01*
X006191Y008097D01*
X006191Y007647D01*
X006652Y007647D02*
X006952Y007947D01*
X006952Y008022D01*
X006877Y008097D01*
X006727Y008097D01*
X006652Y008022D01*
X006652Y007647D02*
X006952Y007647D01*
D12*
X004456Y002848D02*
X004532Y002772D01*
X004839Y002772D01*
X004916Y002848D01*
X004916Y003002D01*
X004839Y003078D01*
X004916Y003232D02*
X004916Y003539D01*
X004916Y003385D02*
X004456Y003385D01*
X004609Y003232D01*
X004532Y003078D02*
X004456Y003002D01*
X004456Y002848D01*
X004350Y002897D02*
X004350Y003339D01*
X003899Y003339D01*
X004322Y002887D02*
X002939Y002887D01*
X002471Y003237D02*
X002471Y003318D01*
X001531Y003421D01*
X001531Y003625D01*
X002471Y003727D01*
X002471Y003809D01*
X001387Y003707D01*
X001368Y003703D01*
X001349Y003697D01*
X001332Y003687D01*
X001316Y003675D01*
X001303Y003660D01*
X001292Y003643D01*
X001285Y003625D01*
X001285Y003400D02*
X001292Y003382D01*
X001303Y003365D01*
X001316Y003350D01*
X001332Y003338D01*
X001349Y003328D01*
X001368Y003322D01*
X001387Y003318D01*
X002471Y003237D01*
X001684Y002889D02*
X000856Y002889D01*
X000856Y002889D01*
X000856Y005914D01*
X001665Y005914D01*
X001387Y005485D02*
X002471Y005567D01*
X002471Y005485D01*
X001531Y005383D01*
X001531Y005178D01*
X002471Y005076D01*
X002471Y004994D01*
X001387Y005096D01*
X001368Y005100D01*
X001349Y005106D01*
X001332Y005116D01*
X001316Y005128D01*
X001303Y005143D01*
X001292Y005160D01*
X001285Y005178D01*
X001285Y005403D02*
X001292Y005421D01*
X001303Y005438D01*
X001316Y005453D01*
X001332Y005465D01*
X001349Y005475D01*
X001368Y005481D01*
X001387Y005485D01*
X001286Y005403D02*
X001277Y005366D01*
X001271Y005329D01*
X001269Y005291D01*
X001271Y005253D01*
X001277Y005216D01*
X001286Y005179D01*
X001387Y004892D02*
X002982Y004810D01*
X002982Y004811D02*
X003000Y004808D01*
X003017Y004801D01*
X003032Y004792D01*
X003045Y004779D01*
X003054Y004764D01*
X003061Y004747D01*
X003064Y004729D01*
X003063Y004729D02*
X003063Y004075D01*
X003064Y004074D02*
X003061Y004056D01*
X003054Y004039D01*
X003045Y004024D01*
X003032Y004011D01*
X003017Y004002D01*
X003000Y003995D01*
X002982Y003992D01*
X002982Y003993D02*
X001387Y003911D01*
X001371Y003913D01*
X001356Y003917D01*
X001341Y003925D01*
X001329Y003935D01*
X001319Y003947D01*
X001311Y003962D01*
X001307Y003977D01*
X001305Y003993D01*
X001307Y004009D01*
X001311Y004024D01*
X001319Y004039D01*
X001329Y004051D01*
X001341Y004061D01*
X001356Y004069D01*
X001371Y004073D01*
X001387Y004075D01*
X002736Y004156D01*
X002736Y004647D01*
X001387Y004729D01*
X001387Y004728D02*
X001371Y004730D01*
X001356Y004734D01*
X001341Y004742D01*
X001329Y004752D01*
X001319Y004764D01*
X001311Y004779D01*
X001307Y004794D01*
X001305Y004810D01*
X001306Y004810D02*
X001306Y004810D01*
X001305Y004810D02*
X001307Y004826D01*
X001311Y004841D01*
X001319Y004856D01*
X001329Y004868D01*
X001341Y004878D01*
X001356Y004886D01*
X001371Y004890D01*
X001387Y004892D01*
X000854Y005916D02*
X000854Y002887D01*
X001286Y003401D02*
X001277Y003438D01*
X001271Y003475D01*
X001269Y003513D01*
X001271Y003551D01*
X001277Y003588D01*
X001286Y003625D01*
X004606Y005022D02*
X004606Y005328D01*
X004759Y005482D02*
X004606Y005635D01*
X005066Y005635D01*
X005066Y005482D02*
X005066Y005789D01*
X004344Y005896D02*
X004344Y005425D01*
X003899Y005425D01*
X004301Y005916D02*
X002929Y005916D01*
X002553Y006375D02*
X002246Y006375D01*
X002093Y006375D02*
X001786Y006835D01*
X002093Y006835D02*
X001786Y006375D01*
X002246Y006682D02*
X002400Y006835D01*
X002400Y006375D01*
X004836Y005175D02*
X004836Y005022D01*
X005066Y005022D02*
X004606Y005022D01*
X006006Y006072D02*
X006006Y006302D01*
X006082Y006378D01*
X006236Y006378D01*
X006313Y006302D01*
X006313Y006072D01*
X006313Y006225D02*
X006466Y006378D01*
X006466Y006532D02*
X006159Y006839D01*
X006082Y006839D01*
X006006Y006762D01*
X006006Y006609D01*
X006082Y006532D01*
X006466Y006532D02*
X006466Y006839D01*
X006466Y006992D02*
X006466Y007299D01*
X006466Y007146D02*
X006006Y007146D01*
X006159Y006992D01*
X006006Y006072D02*
X006466Y006072D01*
X006971Y005338D02*
X007124Y005338D01*
X007047Y005338D02*
X007047Y004877D01*
X006971Y004877D02*
X007124Y004877D01*
X007278Y004954D02*
X007354Y004877D01*
X007508Y004877D01*
X007585Y004954D01*
X007738Y004877D02*
X008045Y004877D01*
X007891Y004877D02*
X007891Y005338D01*
X007738Y005184D01*
X007585Y005261D02*
X007508Y005338D01*
X007354Y005338D01*
X007278Y005261D01*
X007278Y004954D01*
X007239Y004439D02*
X007316Y004362D01*
X007316Y004209D01*
X007239Y004132D01*
X007239Y003978D02*
X007316Y003902D01*
X007316Y003748D01*
X007239Y003672D01*
X006932Y003672D01*
X006856Y003748D01*
X006856Y003902D01*
X006932Y003978D01*
X006932Y004132D02*
X006856Y004209D01*
X006856Y004362D01*
X006932Y004439D01*
X007009Y004439D01*
X007086Y004362D01*
X007163Y004439D01*
X007239Y004439D01*
X007086Y004362D02*
X007086Y004285D01*
X010456Y003082D02*
X010456Y002622D01*
X010456Y002775D02*
X010686Y002775D01*
X010763Y002852D01*
X010763Y003005D01*
X010686Y003082D01*
X010456Y003082D01*
X010916Y003005D02*
X010993Y003082D01*
X011147Y003082D01*
X011223Y003005D01*
X011223Y002928D01*
X010916Y002622D01*
X011223Y002622D01*
X010763Y002622D02*
X010610Y002775D01*
X012556Y002780D02*
X013016Y002780D01*
X013016Y003087D01*
X013016Y003240D02*
X013016Y003547D01*
X013016Y003701D02*
X013016Y003931D01*
X012939Y004008D01*
X012632Y004008D01*
X012556Y003931D01*
X012556Y003701D01*
X013016Y003701D01*
X013785Y003972D02*
X013785Y004432D01*
X014015Y004432D01*
X014092Y004355D01*
X014092Y004202D01*
X014015Y004125D01*
X013785Y004125D01*
X013939Y004125D02*
X014092Y003972D01*
X014246Y004048D02*
X014322Y003972D01*
X014476Y003972D01*
X014553Y004048D01*
X014553Y004125D01*
X014476Y004202D01*
X014399Y004202D01*
X014476Y004202D02*
X014553Y004278D01*
X014553Y004355D01*
X014476Y004432D01*
X014322Y004432D01*
X014246Y004355D01*
X014656Y004872D02*
X014656Y005102D01*
X014732Y005178D01*
X014886Y005178D01*
X014963Y005102D01*
X014963Y004872D01*
X014963Y005025D02*
X015116Y005178D01*
X014886Y005332D02*
X014886Y005639D01*
X015116Y005562D02*
X014656Y005562D01*
X014886Y005332D01*
X015406Y005091D02*
X015482Y005168D01*
X015789Y004861D01*
X015866Y004938D01*
X015866Y005091D01*
X015789Y005168D01*
X015482Y005168D01*
X015406Y005091D02*
X015406Y004938D01*
X015482Y004861D01*
X015789Y004861D01*
X015866Y004708D02*
X015866Y004401D01*
X015559Y004708D01*
X015482Y004708D01*
X015406Y004631D01*
X015406Y004477D01*
X015482Y004401D01*
X015482Y004247D02*
X015406Y004171D01*
X015406Y003940D01*
X015866Y003940D01*
X015713Y003940D02*
X015713Y004171D01*
X015636Y004247D01*
X015482Y004247D01*
X015713Y004094D02*
X015866Y004247D01*
X015116Y004872D02*
X014656Y004872D01*
X013016Y004468D02*
X013016Y004161D01*
X013016Y004315D02*
X012556Y004315D01*
X012709Y004161D01*
X012556Y003547D02*
X012556Y003240D01*
X013016Y003240D01*
X012786Y003240D02*
X012786Y003394D01*
X011673Y004322D02*
X011366Y004322D01*
X011213Y004322D02*
X011060Y004475D01*
X011136Y004475D02*
X010906Y004475D01*
X010906Y004322D02*
X010906Y004782D01*
X011136Y004782D01*
X011213Y004705D01*
X011213Y004552D01*
X011136Y004475D01*
X011366Y004628D02*
X011520Y004782D01*
X011520Y004322D01*
X011586Y004972D02*
X011663Y005048D01*
X011586Y004972D02*
X011433Y004972D01*
X011356Y005048D01*
X011356Y005355D01*
X011433Y005432D01*
X011586Y005432D01*
X011663Y005355D01*
X011816Y005202D02*
X012123Y005202D01*
X012047Y005432D02*
X011816Y005202D01*
X012047Y004972D02*
X012047Y005432D01*
X011486Y005628D02*
X011179Y005628D01*
X011332Y005628D02*
X011332Y006088D01*
X011179Y005935D01*
X011025Y006011D02*
X010949Y006088D01*
X010718Y006088D01*
X010718Y005628D01*
X010949Y005628D01*
X011025Y005705D01*
X011025Y006011D01*
X011172Y006422D02*
X011096Y006498D01*
X011096Y006575D01*
X011172Y006652D01*
X011326Y006652D01*
X011403Y006575D01*
X011403Y006498D01*
X011326Y006422D01*
X011172Y006422D01*
X011172Y006652D02*
X011096Y006728D01*
X011096Y006805D01*
X011172Y006882D01*
X011326Y006882D01*
X011403Y006805D01*
X011403Y006728D01*
X011326Y006652D01*
X010942Y006805D02*
X010865Y006882D01*
X010712Y006882D01*
X010635Y006805D01*
X010635Y006498D01*
X010712Y006422D01*
X010865Y006422D01*
X010942Y006498D01*
X009116Y007098D02*
X009116Y007252D01*
X009039Y007328D01*
X009116Y007482D02*
X008809Y007789D01*
X008732Y007789D01*
X008656Y007712D01*
X008656Y007559D01*
X008732Y007482D01*
X008732Y007328D02*
X008656Y007252D01*
X008656Y007098D01*
X008732Y007022D01*
X009039Y007022D01*
X009116Y007098D01*
X009116Y007482D02*
X009116Y007789D01*
X015156Y006941D02*
X015156Y006788D01*
X015232Y006711D01*
X015309Y006711D01*
X015386Y006788D01*
X015386Y007018D01*
X015539Y007018D02*
X015232Y007018D01*
X015156Y006941D01*
X015232Y006558D02*
X015156Y006481D01*
X015156Y006327D01*
X015232Y006251D01*
X015539Y006251D01*
X015616Y006327D01*
X015616Y006481D01*
X015539Y006558D01*
X015539Y006711D02*
X015616Y006788D01*
X015616Y006941D01*
X015539Y007018D01*
X021098Y004375D02*
X021153Y004097D01*
X021091Y004035D02*
X021064Y004007D01*
X021036Y004035D01*
X021064Y004063D01*
X021091Y004035D01*
X021008Y004119D02*
X020980Y004091D01*
X020952Y004119D01*
X020980Y004146D01*
X021008Y004119D01*
X020884Y004050D02*
X020801Y003967D01*
X020801Y003911D01*
X020856Y003911D01*
X020912Y003967D01*
X020968Y003967D01*
X020968Y003911D01*
X020884Y003828D01*
X020788Y003787D02*
X020788Y003732D01*
X020705Y003649D01*
X020760Y003593D02*
X020594Y003760D01*
X020677Y003843D01*
X020733Y003843D01*
X020788Y003787D01*
X020641Y003584D02*
X020585Y003584D01*
X020474Y003696D01*
X020474Y003640D02*
X020530Y003696D01*
X020410Y003576D02*
X020354Y003520D01*
X020354Y003576D02*
X020465Y003465D01*
X020521Y003465D01*
X020397Y003341D02*
X020314Y003424D01*
X020258Y003424D01*
X020203Y003369D01*
X020203Y003313D01*
X020286Y003230D02*
X020119Y003397D01*
X021333Y004277D02*
X021277Y004554D01*
X021401Y004567D02*
X021429Y004595D01*
X021484Y004595D01*
X021484Y004650D01*
X021540Y004650D01*
X021623Y004567D01*
X021568Y004512D02*
X021484Y004595D01*
X021401Y004567D02*
X021512Y004456D01*
X021664Y004663D02*
X021719Y004663D01*
X021775Y004719D01*
X021775Y004774D01*
X021719Y004830D01*
X021664Y004830D01*
X021608Y004774D01*
X021608Y004719D01*
X021664Y004663D01*
X021927Y004759D02*
X021954Y004787D01*
X021954Y004843D01*
X021815Y004982D01*
X021760Y005037D02*
X021732Y005065D01*
X021824Y005157D02*
X021852Y005129D01*
X021907Y005073D02*
X022018Y004962D01*
X021991Y004934D02*
X022046Y004990D01*
X022110Y005054D02*
X022221Y005165D01*
X022262Y005261D02*
X022318Y005261D01*
X022401Y005345D01*
X022290Y005456D01*
X022358Y005524D02*
X022469Y005413D01*
X022414Y005469D02*
X022414Y005580D01*
X022441Y005607D01*
X022508Y005674D02*
X022535Y005701D01*
X022647Y005590D01*
X022674Y005618D02*
X022619Y005562D01*
X022738Y005682D02*
X022711Y005710D01*
X022738Y005738D01*
X022766Y005710D01*
X022738Y005682D01*
X022800Y005800D02*
X022856Y005800D01*
X022939Y005883D01*
X022980Y005979D02*
X023035Y005979D01*
X023091Y006035D01*
X023091Y006090D01*
X023035Y006146D01*
X022980Y006146D01*
X022924Y006090D01*
X022924Y006035D01*
X022980Y005979D01*
X022828Y005994D02*
X022745Y005911D01*
X022745Y005855D01*
X022800Y005800D01*
X022480Y005757D02*
X022452Y005785D01*
X022179Y005345D02*
X022262Y005261D01*
X022110Y005276D02*
X022110Y005054D01*
X021999Y005165D02*
X022110Y005276D01*
X021907Y005073D02*
X021880Y005046D01*
X023076Y006242D02*
X023187Y006131D01*
X023243Y006186D02*
X023159Y006270D01*
X023159Y006325D01*
X023215Y006325D01*
X023298Y006242D01*
X023366Y006310D02*
X023311Y006588D01*
X023159Y006270D02*
X023104Y006270D01*
X023076Y006242D01*
X024356Y006052D02*
X024356Y005822D01*
X024816Y005822D01*
X024663Y005822D02*
X024663Y006052D01*
X024586Y006128D01*
X024432Y006128D01*
X024356Y006052D01*
X024663Y005975D02*
X024816Y006128D01*
X024739Y006282D02*
X024816Y006359D01*
X024816Y006512D01*
X024739Y006589D01*
X024663Y006589D01*
X024586Y006512D01*
X024586Y006282D01*
X024739Y006282D01*
X024586Y006282D02*
X024432Y006435D01*
X024356Y006589D01*
X025256Y006589D02*
X025256Y006282D01*
X025332Y006128D02*
X025486Y006128D01*
X025563Y006052D01*
X025563Y005822D01*
X025563Y005975D02*
X025716Y006128D01*
X025716Y006282D02*
X025639Y006282D01*
X025332Y006589D01*
X025256Y006589D01*
X025835Y006622D02*
X025835Y007082D01*
X026065Y007082D01*
X026142Y007005D01*
X026142Y006852D01*
X026065Y006775D01*
X025835Y006775D01*
X025989Y006775D02*
X026142Y006622D01*
X026296Y006698D02*
X026372Y006622D01*
X026526Y006622D01*
X026603Y006698D01*
X026603Y006852D01*
X026526Y006928D01*
X026449Y006928D01*
X026296Y006852D01*
X026296Y007082D01*
X026603Y007082D01*
X028135Y007148D02*
X028212Y007072D01*
X028365Y007072D01*
X028442Y007148D01*
X028596Y007148D02*
X028596Y007072D01*
X028596Y007148D02*
X028903Y007455D01*
X028903Y007532D01*
X028596Y007532D01*
X028442Y007455D02*
X028365Y007532D01*
X028212Y007532D01*
X028135Y007455D01*
X028135Y007148D01*
X027189Y006068D02*
X027266Y005991D01*
X027266Y005838D01*
X027189Y005761D01*
X027036Y005761D02*
X026959Y005915D01*
X026959Y005991D01*
X027036Y006068D01*
X027189Y006068D01*
X027036Y005761D02*
X026806Y005761D01*
X026806Y006068D01*
X026882Y005608D02*
X026806Y005531D01*
X026806Y005377D01*
X026882Y005301D01*
X027189Y005301D01*
X027266Y005377D01*
X027266Y005531D01*
X027189Y005608D01*
X026516Y004962D02*
X026439Y005039D01*
X026363Y005039D01*
X026286Y004962D01*
X026286Y004732D01*
X026439Y004732D01*
X026516Y004809D01*
X026516Y004962D01*
X026286Y004732D02*
X026132Y004885D01*
X026056Y005039D01*
X026132Y004578D02*
X026056Y004502D01*
X026056Y004348D01*
X026132Y004272D01*
X026439Y004272D01*
X026516Y004348D01*
X026516Y004502D01*
X026439Y004578D01*
X025032Y004011D02*
X024879Y003858D01*
X024725Y003934D02*
X024725Y003627D01*
X024649Y003551D01*
X024495Y003551D01*
X024418Y003627D01*
X024418Y003934D01*
X024495Y004011D01*
X024649Y004011D01*
X024725Y003934D01*
X024572Y003704D02*
X024725Y003551D01*
X024879Y003551D02*
X025186Y003551D01*
X025032Y003551D02*
X025032Y004011D01*
X028122Y003669D02*
X028275Y003669D01*
X028199Y003669D02*
X028199Y003209D01*
X028275Y003209D02*
X028122Y003209D01*
X028429Y003286D02*
X028505Y003209D01*
X028659Y003209D01*
X028736Y003286D01*
X028889Y003286D02*
X028966Y003209D01*
X029119Y003209D01*
X029196Y003286D01*
X029196Y003362D01*
X029119Y003439D01*
X029043Y003439D01*
X029119Y003439D02*
X029196Y003516D01*
X029196Y003593D01*
X029119Y003669D01*
X028966Y003669D01*
X028889Y003593D01*
X028736Y003593D02*
X028659Y003669D01*
X028505Y003669D01*
X028429Y003593D01*
X028429Y003286D01*
X028956Y004222D02*
X029416Y004222D01*
X029416Y004528D01*
X029416Y004682D02*
X029416Y004989D01*
X029416Y004835D02*
X028956Y004835D01*
X029109Y004682D01*
X028885Y005422D02*
X028885Y005882D01*
X029192Y005882D01*
X029346Y005805D02*
X029422Y005882D01*
X029576Y005882D01*
X029653Y005805D01*
X029653Y005728D01*
X029346Y005422D01*
X029653Y005422D01*
X029039Y005652D02*
X028885Y005652D01*
X025716Y005822D02*
X025256Y005822D01*
X025256Y006052D01*
X025332Y006128D01*
X025406Y013672D02*
X025406Y014132D01*
X025636Y014132D01*
X025713Y014055D01*
X025713Y013902D01*
X025636Y013825D01*
X025406Y013825D01*
X025560Y013825D02*
X025713Y013672D01*
X025866Y013672D02*
X026173Y013672D01*
X026020Y013672D02*
X026020Y014132D01*
X025866Y013978D01*
X026327Y014055D02*
X026404Y014132D01*
X026557Y014132D01*
X026634Y014055D01*
X026634Y013978D01*
X026327Y013672D01*
X026634Y013672D01*
X026806Y013672D02*
X026806Y014132D01*
X027036Y014132D01*
X027113Y014055D01*
X027113Y013902D01*
X027036Y013825D01*
X026806Y013825D01*
X026960Y013825D02*
X027113Y013672D01*
X027266Y013672D02*
X027573Y013672D01*
X027420Y013672D02*
X027420Y014132D01*
X027266Y013978D01*
X027727Y013902D02*
X027957Y013902D01*
X028034Y013825D01*
X028034Y013748D01*
X027957Y013672D01*
X027804Y013672D01*
X027727Y013748D01*
X027727Y013902D01*
X027880Y014055D01*
X028034Y014132D01*
X028156Y014132D02*
X028386Y014132D01*
X028463Y014055D01*
X028463Y013902D01*
X028386Y013825D01*
X028156Y013825D01*
X028156Y013672D02*
X028156Y014132D01*
X028616Y013978D02*
X028770Y014132D01*
X028770Y013672D01*
X028923Y013672D02*
X028616Y013672D01*
X028463Y013672D02*
X028310Y013825D01*
X029077Y013902D02*
X029077Y014132D01*
X029384Y014132D01*
X029307Y013978D02*
X029384Y013902D01*
X029384Y013748D01*
X029307Y013672D01*
X029154Y013672D01*
X029077Y013748D01*
X029077Y013902D02*
X029230Y013978D01*
X029307Y013978D01*
X026916Y015548D02*
X026839Y015472D01*
X026532Y015472D01*
X026456Y015548D01*
X026456Y015702D01*
X026532Y015778D01*
X026609Y015932D02*
X026456Y016085D01*
X026916Y016085D01*
X026916Y015932D02*
X026916Y016239D01*
X026916Y016392D02*
X026609Y016699D01*
X026532Y016699D01*
X026456Y016623D01*
X026456Y016469D01*
X026532Y016392D01*
X026916Y016392D02*
X026916Y016699D01*
X027723Y016476D02*
X027723Y016169D01*
X027800Y016092D01*
X027953Y016092D01*
X028030Y016169D01*
X028030Y016476D01*
X027953Y016553D01*
X027800Y016553D01*
X027723Y016476D01*
X027876Y016246D02*
X028030Y016092D01*
X028183Y016323D02*
X028490Y016323D01*
X028414Y016553D02*
X028414Y016092D01*
X028183Y016323D02*
X028414Y016553D01*
X026916Y015702D02*
X026839Y015778D01*
X026916Y015702D02*
X026916Y015548D01*
X025886Y016177D02*
X025809Y016101D01*
X025655Y016101D01*
X025579Y016177D01*
X025425Y016177D02*
X025349Y016101D01*
X025195Y016101D01*
X025118Y016177D01*
X025118Y016484D01*
X025195Y016561D01*
X025349Y016561D01*
X025425Y016484D01*
X025425Y016177D01*
X025425Y016101D02*
X025272Y016254D01*
X025579Y016484D02*
X025655Y016561D01*
X025809Y016561D01*
X025886Y016484D01*
X025886Y016408D01*
X025809Y016331D01*
X025886Y016254D01*
X025886Y016177D01*
X025809Y016331D02*
X025732Y016331D01*
X024266Y016342D02*
X024266Y016649D01*
X024266Y016496D02*
X023806Y016496D01*
X023959Y016342D01*
X023806Y016035D02*
X024266Y016035D01*
X024266Y015882D02*
X024266Y016189D01*
X023959Y015882D02*
X023806Y016035D01*
X023290Y016092D02*
X022983Y016092D01*
X023290Y016399D01*
X023290Y016476D01*
X023214Y016553D01*
X023060Y016553D01*
X022983Y016476D01*
X022830Y016476D02*
X022830Y016169D01*
X022753Y016092D01*
X022600Y016092D01*
X022523Y016169D01*
X022523Y016476D01*
X022600Y016553D01*
X022753Y016553D01*
X022830Y016476D01*
X022676Y016246D02*
X022830Y016092D01*
X023806Y015652D02*
X023806Y015498D01*
X023882Y015422D01*
X024189Y015422D01*
X024266Y015498D01*
X024266Y015652D01*
X024189Y015728D01*
X023882Y015728D02*
X023806Y015652D01*
X021416Y015161D02*
X021339Y015161D01*
X021032Y015468D01*
X020956Y015468D01*
X020956Y015161D01*
X021416Y015008D02*
X021416Y014701D01*
X021416Y014854D02*
X020956Y014854D01*
X021109Y014701D01*
X021032Y014547D02*
X021186Y014547D01*
X021263Y014471D01*
X021263Y014240D01*
X021325Y014132D02*
X021555Y014132D01*
X021632Y014055D01*
X021632Y013902D01*
X021555Y013825D01*
X021325Y013825D01*
X021478Y013825D02*
X021632Y013672D01*
X021785Y013672D02*
X022092Y013672D01*
X021939Y013672D02*
X021939Y014132D01*
X021785Y013978D01*
X021416Y014240D02*
X020956Y014240D01*
X020956Y014471D01*
X021032Y014547D01*
X021263Y014394D02*
X021416Y014547D01*
X021325Y014132D02*
X021325Y013672D01*
X022246Y013748D02*
X022246Y014055D01*
X022322Y014132D01*
X022476Y014132D01*
X022553Y014055D01*
X022246Y013748D01*
X022322Y013672D01*
X022476Y013672D01*
X022553Y013748D01*
X022553Y014055D01*
X022956Y014132D02*
X023186Y014132D01*
X023263Y014055D01*
X023263Y013902D01*
X023186Y013825D01*
X022956Y013825D01*
X022956Y013672D02*
X022956Y014132D01*
X023416Y014055D02*
X023416Y013978D01*
X023493Y013902D01*
X023723Y013902D01*
X023723Y014055D02*
X023723Y013748D01*
X023647Y013672D01*
X023493Y013672D01*
X023416Y013748D01*
X023263Y013672D02*
X023110Y013825D01*
X023416Y014055D02*
X023493Y014132D01*
X023647Y014132D01*
X023723Y014055D01*
X023925Y014132D02*
X024155Y014132D01*
X024232Y014055D01*
X024232Y013902D01*
X024155Y013825D01*
X023925Y013825D01*
X024078Y013825D02*
X024232Y013672D01*
X024385Y013672D02*
X024692Y013672D01*
X024539Y013672D02*
X024539Y014132D01*
X024385Y013978D01*
X024846Y014055D02*
X024922Y014132D01*
X025076Y014132D01*
X025153Y014055D01*
X025153Y013978D01*
X025076Y013902D01*
X025153Y013825D01*
X025153Y013748D01*
X025076Y013672D01*
X024922Y013672D01*
X024846Y013748D01*
X024999Y013902D02*
X025076Y013902D01*
X023925Y013672D02*
X023925Y014132D01*
X019703Y014105D02*
X019703Y013798D01*
X019626Y013722D01*
X019472Y013722D01*
X019396Y013798D01*
X019472Y013952D02*
X019703Y013952D01*
X019703Y014105D02*
X019626Y014182D01*
X019472Y014182D01*
X019396Y014105D01*
X019396Y014028D01*
X019472Y013952D01*
X019242Y013722D02*
X018935Y013722D01*
X018782Y013722D02*
X018628Y013875D01*
X018705Y013875D02*
X018475Y013875D01*
X018475Y013722D02*
X018475Y014182D01*
X018705Y014182D01*
X018782Y014105D01*
X018782Y013952D01*
X018705Y013875D01*
X018935Y014028D02*
X019089Y014182D01*
X019089Y013722D01*
X019456Y017472D02*
X019456Y017932D01*
X019686Y017932D01*
X019763Y017855D01*
X019763Y017702D01*
X019686Y017625D01*
X019456Y017625D01*
X019610Y017625D02*
X019763Y017472D01*
X019916Y017472D02*
X020223Y017472D01*
X020070Y017472D02*
X020070Y017932D01*
X019916Y017778D01*
X020377Y017778D02*
X020377Y017855D01*
X020454Y017932D01*
X020607Y017932D01*
X020684Y017855D01*
X020684Y017778D01*
X020607Y017702D01*
X020454Y017702D01*
X020377Y017778D01*
X020454Y017702D02*
X020377Y017625D01*
X020377Y017548D01*
X020454Y017472D01*
X020607Y017472D01*
X020684Y017548D01*
X020684Y017625D01*
X020607Y017702D01*
X022306Y017598D02*
X022383Y017522D01*
X022536Y017522D01*
X022613Y017598D01*
X022766Y017522D02*
X023073Y017522D01*
X022920Y017522D02*
X022920Y017982D01*
X022766Y017828D01*
X022613Y017905D02*
X022536Y017982D01*
X022383Y017982D01*
X022306Y017905D01*
X022306Y017598D01*
X023227Y017598D02*
X023304Y017522D01*
X023457Y017522D01*
X023534Y017598D01*
X023534Y017905D01*
X023227Y017598D01*
X023227Y017905D01*
X023304Y017982D01*
X023457Y017982D01*
X023534Y017905D01*
X023706Y017982D02*
X023936Y017982D01*
X024013Y017905D01*
X024013Y017752D01*
X023936Y017675D01*
X023706Y017675D01*
X023706Y017522D02*
X023706Y017982D01*
X023860Y017675D02*
X024013Y017522D01*
X024166Y017598D02*
X024243Y017522D01*
X024397Y017522D01*
X024473Y017598D01*
X024473Y017675D01*
X024397Y017752D01*
X024243Y017752D01*
X024166Y017828D01*
X024166Y017905D01*
X024243Y017982D01*
X024397Y017982D01*
X024473Y017905D01*
X024473Y017828D01*
X024397Y017752D01*
X024243Y017752D02*
X024166Y017675D01*
X024166Y017598D01*
X025456Y017522D02*
X025456Y017982D01*
X025686Y017982D01*
X025763Y017905D01*
X025763Y017752D01*
X025686Y017675D01*
X025456Y017675D01*
X025610Y017675D02*
X025763Y017522D01*
X025916Y017522D02*
X026223Y017522D01*
X026070Y017522D02*
X026070Y017982D01*
X025916Y017828D01*
X026377Y017828D02*
X026530Y017982D01*
X026530Y017522D01*
X026377Y017522D02*
X026684Y017522D01*
X028006Y017522D02*
X028006Y017982D01*
X028236Y017982D01*
X028313Y017905D01*
X028313Y017752D01*
X028236Y017675D01*
X028006Y017675D01*
X028160Y017675D02*
X028313Y017522D01*
X028466Y017522D02*
X028773Y017522D01*
X028620Y017522D02*
X028620Y017982D01*
X028466Y017828D01*
X028927Y017752D02*
X029234Y017752D01*
X029157Y017522D02*
X029157Y017982D01*
X028927Y017752D01*
X036006Y016283D02*
X036006Y016129D01*
X036082Y016053D01*
X036082Y015899D02*
X036006Y015823D01*
X036006Y015592D01*
X036466Y015592D01*
X036466Y015823D01*
X036389Y015899D01*
X036082Y015899D01*
X036466Y016053D02*
X036159Y016360D01*
X036082Y016360D01*
X036006Y016283D01*
X036466Y016360D02*
X036466Y016053D01*
X036466Y015439D02*
X036466Y015132D01*
X036006Y015132D01*
X036006Y015439D01*
X036236Y015285D02*
X036236Y015132D01*
X036466Y014978D02*
X036466Y014672D01*
X036006Y014672D01*
X016603Y017598D02*
X016526Y017522D01*
X016372Y017522D01*
X016296Y017598D01*
X016142Y017598D02*
X016065Y017522D01*
X015835Y017522D01*
X015835Y017982D01*
X016065Y017982D01*
X016142Y017905D01*
X016142Y017598D01*
X016449Y017752D02*
X016526Y017752D01*
X016603Y017675D01*
X016603Y017598D01*
X016526Y017752D02*
X016603Y017828D01*
X016603Y017905D01*
X016526Y017982D01*
X016372Y017982D01*
X016296Y017905D01*
X015682Y017982D02*
X015375Y017982D01*
X015375Y017522D01*
X015682Y017522D01*
X015528Y017752D02*
X015375Y017752D01*
X015221Y017522D02*
X014914Y017522D01*
X014914Y017982D01*
X012453Y017752D02*
X012146Y017752D01*
X012376Y017982D01*
X012376Y017522D01*
X011992Y017598D02*
X011992Y017905D01*
X011915Y017982D01*
X011685Y017982D01*
X011685Y017522D01*
X011915Y017522D01*
X011992Y017598D01*
X011532Y017522D02*
X011225Y017522D01*
X011225Y017982D01*
X011532Y017982D01*
X011378Y017752D02*
X011225Y017752D01*
X011071Y017522D02*
X010764Y017522D01*
X010764Y017982D01*
X008344Y017982D02*
X008037Y017982D01*
X008037Y017752D01*
X008191Y017828D01*
X008267Y017828D01*
X008344Y017752D01*
X008344Y017598D01*
X008267Y017522D01*
X008114Y017522D01*
X008037Y017598D01*
X007884Y017598D02*
X007884Y017905D01*
X007807Y017982D01*
X007577Y017982D01*
X007577Y017522D01*
X007807Y017522D01*
X007884Y017598D01*
X007423Y017522D02*
X007116Y017522D01*
X007116Y017982D01*
X007423Y017982D01*
X007270Y017752D02*
X007116Y017752D01*
X006963Y017522D02*
X006656Y017522D01*
X006656Y017982D01*
X004253Y017982D02*
X004099Y017905D01*
X003946Y017752D01*
X004176Y017752D01*
X004253Y017675D01*
X004253Y017598D01*
X004176Y017522D01*
X004022Y017522D01*
X003946Y017598D01*
X003946Y017752D01*
X003792Y017598D02*
X003792Y017905D01*
X003715Y017982D01*
X003485Y017982D01*
X003485Y017522D01*
X003715Y017522D01*
X003792Y017598D01*
X003332Y017522D02*
X003025Y017522D01*
X003025Y017982D01*
X003332Y017982D01*
X003178Y017752D02*
X003025Y017752D01*
X002871Y017522D02*
X002564Y017522D01*
X002564Y017982D01*
D13*
X004186Y016852D02*
X004536Y016852D01*
X005536Y016852D01*
X005886Y016852D01*
X006236Y016052D02*
X006236Y015952D01*
X006336Y015952D01*
X006336Y015352D01*
X006236Y015352D01*
X006236Y015252D01*
X004936Y015652D02*
X004938Y015672D01*
X004944Y015690D01*
X004953Y015708D01*
X004965Y015723D01*
X004980Y015735D01*
X004998Y015744D01*
X005016Y015750D01*
X005036Y015752D01*
X005056Y015750D01*
X005074Y015744D01*
X005092Y015735D01*
X005107Y015723D01*
X005119Y015708D01*
X005128Y015690D01*
X005134Y015672D01*
X005136Y015652D01*
X005134Y015632D01*
X005128Y015614D01*
X005119Y015596D01*
X005107Y015581D01*
X005092Y015569D01*
X005074Y015560D01*
X005056Y015554D01*
X005036Y015552D01*
X005016Y015554D01*
X004998Y015560D01*
X004980Y015569D01*
X004965Y015581D01*
X004953Y015596D01*
X004944Y015614D01*
X004938Y015632D01*
X004936Y015652D01*
X004336Y015652D02*
X004338Y015704D01*
X004344Y015756D01*
X004354Y015808D01*
X004367Y015858D01*
X004384Y015908D01*
X004405Y015956D01*
X004430Y016002D01*
X004458Y016046D01*
X004489Y016088D01*
X004523Y016128D01*
X004560Y016165D01*
X004600Y016199D01*
X004642Y016230D01*
X004686Y016258D01*
X004732Y016283D01*
X004780Y016304D01*
X004830Y016321D01*
X004880Y016334D01*
X004932Y016344D01*
X004984Y016350D01*
X005036Y016352D01*
X005088Y016350D01*
X005140Y016344D01*
X005192Y016334D01*
X005242Y016321D01*
X005292Y016304D01*
X005340Y016283D01*
X005386Y016258D01*
X005430Y016230D01*
X005472Y016199D01*
X005512Y016165D01*
X005549Y016128D01*
X005583Y016088D01*
X005614Y016046D01*
X005642Y016002D01*
X005667Y015956D01*
X005688Y015908D01*
X005705Y015858D01*
X005718Y015808D01*
X005728Y015756D01*
X005734Y015704D01*
X005736Y015652D01*
X005734Y015600D01*
X005728Y015548D01*
X005718Y015496D01*
X005705Y015446D01*
X005688Y015396D01*
X005667Y015348D01*
X005642Y015302D01*
X005614Y015258D01*
X005583Y015216D01*
X005549Y015176D01*
X005512Y015139D01*
X005472Y015105D01*
X005430Y015074D01*
X005386Y015046D01*
X005340Y015021D01*
X005292Y015000D01*
X005242Y014983D01*
X005192Y014970D01*
X005140Y014960D01*
X005088Y014954D01*
X005036Y014952D01*
X004984Y014954D01*
X004932Y014960D01*
X004880Y014970D01*
X004830Y014983D01*
X004780Y015000D01*
X004732Y015021D01*
X004686Y015046D01*
X004642Y015074D01*
X004600Y015105D01*
X004560Y015139D01*
X004523Y015176D01*
X004489Y015216D01*
X004458Y015258D01*
X004430Y015302D01*
X004405Y015348D01*
X004384Y015396D01*
X004367Y015446D01*
X004354Y015496D01*
X004344Y015548D01*
X004338Y015600D01*
X004336Y015652D01*
X003836Y015952D02*
X003836Y016052D01*
X003836Y015952D02*
X003736Y015952D01*
X003736Y015352D01*
X003836Y015352D01*
X003836Y015252D01*
X004186Y014452D02*
X004536Y014452D01*
X005486Y014452D01*
X005886Y014452D01*
X007886Y015352D02*
X007986Y015352D01*
X007986Y015252D01*
X007886Y015352D02*
X007886Y015952D01*
X007986Y015952D01*
X007986Y016052D01*
X009086Y015652D02*
X009088Y015672D01*
X009094Y015690D01*
X009103Y015708D01*
X009115Y015723D01*
X009130Y015735D01*
X009148Y015744D01*
X009166Y015750D01*
X009186Y015752D01*
X009206Y015750D01*
X009224Y015744D01*
X009242Y015735D01*
X009257Y015723D01*
X009269Y015708D01*
X009278Y015690D01*
X009284Y015672D01*
X009286Y015652D01*
X009284Y015632D01*
X009278Y015614D01*
X009269Y015596D01*
X009257Y015581D01*
X009242Y015569D01*
X009224Y015560D01*
X009206Y015554D01*
X009186Y015552D01*
X009166Y015554D01*
X009148Y015560D01*
X009130Y015569D01*
X009115Y015581D01*
X009103Y015596D01*
X009094Y015614D01*
X009088Y015632D01*
X009086Y015652D01*
X008486Y015652D02*
X008488Y015704D01*
X008494Y015756D01*
X008504Y015808D01*
X008517Y015858D01*
X008534Y015908D01*
X008555Y015956D01*
X008580Y016002D01*
X008608Y016046D01*
X008639Y016088D01*
X008673Y016128D01*
X008710Y016165D01*
X008750Y016199D01*
X008792Y016230D01*
X008836Y016258D01*
X008882Y016283D01*
X008930Y016304D01*
X008980Y016321D01*
X009030Y016334D01*
X009082Y016344D01*
X009134Y016350D01*
X009186Y016352D01*
X009238Y016350D01*
X009290Y016344D01*
X009342Y016334D01*
X009392Y016321D01*
X009442Y016304D01*
X009490Y016283D01*
X009536Y016258D01*
X009580Y016230D01*
X009622Y016199D01*
X009662Y016165D01*
X009699Y016128D01*
X009733Y016088D01*
X009764Y016046D01*
X009792Y016002D01*
X009817Y015956D01*
X009838Y015908D01*
X009855Y015858D01*
X009868Y015808D01*
X009878Y015756D01*
X009884Y015704D01*
X009886Y015652D01*
X009884Y015600D01*
X009878Y015548D01*
X009868Y015496D01*
X009855Y015446D01*
X009838Y015396D01*
X009817Y015348D01*
X009792Y015302D01*
X009764Y015258D01*
X009733Y015216D01*
X009699Y015176D01*
X009662Y015139D01*
X009622Y015105D01*
X009580Y015074D01*
X009536Y015046D01*
X009490Y015021D01*
X009442Y015000D01*
X009392Y014983D01*
X009342Y014970D01*
X009290Y014960D01*
X009238Y014954D01*
X009186Y014952D01*
X009134Y014954D01*
X009082Y014960D01*
X009030Y014970D01*
X008980Y014983D01*
X008930Y015000D01*
X008882Y015021D01*
X008836Y015046D01*
X008792Y015074D01*
X008750Y015105D01*
X008710Y015139D01*
X008673Y015176D01*
X008639Y015216D01*
X008608Y015258D01*
X008580Y015302D01*
X008555Y015348D01*
X008534Y015396D01*
X008517Y015446D01*
X008504Y015496D01*
X008494Y015548D01*
X008488Y015600D01*
X008486Y015652D01*
X010386Y015952D02*
X010386Y016052D01*
X010386Y015952D02*
X010486Y015952D01*
X010486Y015352D01*
X010386Y015352D01*
X010386Y015252D01*
X010036Y014452D02*
X009636Y014452D01*
X008686Y014452D01*
X008336Y014452D01*
X008372Y013108D02*
X008259Y013108D01*
X008202Y013052D01*
X008202Y012938D01*
X008259Y012882D01*
X008372Y012882D01*
X008429Y012938D01*
X008429Y013052D01*
X008372Y013108D01*
X008570Y013108D02*
X008627Y013108D01*
X008684Y013052D01*
X008741Y013108D01*
X008797Y013052D01*
X008797Y012882D01*
X008684Y012882D02*
X008684Y013052D01*
X008570Y013108D02*
X008570Y012882D01*
X008939Y012882D02*
X009166Y013222D01*
X008061Y013108D02*
X007891Y013108D01*
X007834Y013052D01*
X007834Y012938D01*
X007891Y012882D01*
X008061Y012882D01*
X007706Y012882D02*
X007706Y012938D01*
X007650Y012938D01*
X007650Y012882D01*
X007706Y012882D01*
X007518Y012882D02*
X007404Y012882D01*
X007461Y012882D02*
X007461Y013108D01*
X007404Y013108D01*
X007461Y013222D02*
X007461Y013279D01*
X007267Y013108D02*
X007211Y013108D01*
X007097Y012995D01*
X007097Y012882D02*
X007097Y013108D01*
X006956Y013108D02*
X006956Y012882D01*
X006786Y012882D01*
X006729Y012938D01*
X006729Y013108D01*
X006587Y013108D02*
X006361Y012882D01*
X006587Y012882D01*
X006228Y012882D02*
X006115Y012882D01*
X006172Y012882D02*
X006172Y013108D01*
X006115Y013108D01*
X006172Y013222D02*
X006172Y013279D01*
X005983Y013279D02*
X005983Y013222D01*
X005983Y013108D02*
X005983Y012825D01*
X005926Y012768D01*
X005870Y012768D01*
X005728Y012938D02*
X005728Y013052D01*
X005671Y013108D01*
X005558Y013108D01*
X005501Y013052D01*
X005501Y012938D01*
X005558Y012882D01*
X005671Y012882D01*
X005728Y012938D01*
X005360Y012882D02*
X005360Y013052D01*
X005303Y013108D01*
X005246Y013052D01*
X005246Y012882D01*
X005133Y012882D02*
X005133Y013108D01*
X005190Y013108D01*
X005246Y013052D01*
X004991Y013222D02*
X004765Y012882D01*
X004623Y013222D02*
X004396Y012882D01*
X004269Y012882D02*
X004212Y012882D01*
X004212Y012938D01*
X004269Y012938D01*
X004269Y012882D01*
X004269Y013052D02*
X004212Y013052D01*
X004212Y013108D01*
X004269Y013108D01*
X004269Y013052D01*
X004071Y013108D02*
X003900Y013108D01*
X003844Y013052D01*
X003900Y012995D01*
X004014Y012995D01*
X004071Y012938D01*
X004014Y012882D01*
X003844Y012882D01*
X003702Y012938D02*
X003646Y012882D01*
X003475Y012882D01*
X003475Y012768D02*
X003475Y013108D01*
X003646Y013108D01*
X003702Y013052D01*
X003702Y012938D01*
X003343Y012882D02*
X003287Y012938D01*
X003287Y013165D01*
X003343Y013108D02*
X003230Y013108D01*
X003098Y013108D02*
X002984Y013108D01*
X003041Y013165D02*
X003041Y012938D01*
X003098Y012882D01*
X002843Y012882D02*
X002843Y013052D01*
X002786Y013108D01*
X002673Y013108D01*
X002616Y013052D01*
X002616Y013222D02*
X002616Y012882D01*
X006361Y013108D02*
X006587Y013108D01*
X010886Y013595D02*
X010929Y013552D01*
X010973Y013552D01*
X011016Y013595D01*
X011016Y013812D01*
X010973Y013812D02*
X011060Y013812D01*
X011181Y013812D02*
X011311Y013812D01*
X011354Y013768D01*
X011354Y013682D01*
X011311Y013638D01*
X011181Y013638D01*
X011181Y013552D02*
X011181Y013812D01*
X011475Y013768D02*
X011519Y013812D01*
X011605Y013812D01*
X011649Y013768D01*
X011649Y013725D01*
X011605Y013682D01*
X011649Y013638D01*
X011649Y013595D01*
X011605Y013552D01*
X011519Y013552D01*
X011475Y013595D01*
X011562Y013682D02*
X011605Y013682D01*
X012486Y014452D02*
X012836Y014452D01*
X013786Y014452D01*
X014186Y014452D01*
X014536Y015252D02*
X014536Y015352D01*
X014636Y015352D01*
X014636Y015952D01*
X014536Y015952D01*
X014536Y016052D01*
X013236Y015652D02*
X013238Y015672D01*
X013244Y015690D01*
X013253Y015708D01*
X013265Y015723D01*
X013280Y015735D01*
X013298Y015744D01*
X013316Y015750D01*
X013336Y015752D01*
X013356Y015750D01*
X013374Y015744D01*
X013392Y015735D01*
X013407Y015723D01*
X013419Y015708D01*
X013428Y015690D01*
X013434Y015672D01*
X013436Y015652D01*
X013434Y015632D01*
X013428Y015614D01*
X013419Y015596D01*
X013407Y015581D01*
X013392Y015569D01*
X013374Y015560D01*
X013356Y015554D01*
X013336Y015552D01*
X013316Y015554D01*
X013298Y015560D01*
X013280Y015569D01*
X013265Y015581D01*
X013253Y015596D01*
X013244Y015614D01*
X013238Y015632D01*
X013236Y015652D01*
X012636Y015652D02*
X012638Y015704D01*
X012644Y015756D01*
X012654Y015808D01*
X012667Y015858D01*
X012684Y015908D01*
X012705Y015956D01*
X012730Y016002D01*
X012758Y016046D01*
X012789Y016088D01*
X012823Y016128D01*
X012860Y016165D01*
X012900Y016199D01*
X012942Y016230D01*
X012986Y016258D01*
X013032Y016283D01*
X013080Y016304D01*
X013130Y016321D01*
X013180Y016334D01*
X013232Y016344D01*
X013284Y016350D01*
X013336Y016352D01*
X013388Y016350D01*
X013440Y016344D01*
X013492Y016334D01*
X013542Y016321D01*
X013592Y016304D01*
X013640Y016283D01*
X013686Y016258D01*
X013730Y016230D01*
X013772Y016199D01*
X013812Y016165D01*
X013849Y016128D01*
X013883Y016088D01*
X013914Y016046D01*
X013942Y016002D01*
X013967Y015956D01*
X013988Y015908D01*
X014005Y015858D01*
X014018Y015808D01*
X014028Y015756D01*
X014034Y015704D01*
X014036Y015652D01*
X014034Y015600D01*
X014028Y015548D01*
X014018Y015496D01*
X014005Y015446D01*
X013988Y015396D01*
X013967Y015348D01*
X013942Y015302D01*
X013914Y015258D01*
X013883Y015216D01*
X013849Y015176D01*
X013812Y015139D01*
X013772Y015105D01*
X013730Y015074D01*
X013686Y015046D01*
X013640Y015021D01*
X013592Y015000D01*
X013542Y014983D01*
X013492Y014970D01*
X013440Y014960D01*
X013388Y014954D01*
X013336Y014952D01*
X013284Y014954D01*
X013232Y014960D01*
X013180Y014970D01*
X013130Y014983D01*
X013080Y015000D01*
X013032Y015021D01*
X012986Y015046D01*
X012942Y015074D01*
X012900Y015105D01*
X012860Y015139D01*
X012823Y015176D01*
X012789Y015216D01*
X012758Y015258D01*
X012730Y015302D01*
X012705Y015348D01*
X012684Y015396D01*
X012667Y015446D01*
X012654Y015496D01*
X012644Y015548D01*
X012638Y015600D01*
X012636Y015652D01*
X012136Y015952D02*
X012136Y016052D01*
X012136Y015952D02*
X012036Y015952D01*
X012036Y015352D01*
X012136Y015352D01*
X012136Y015252D01*
X012486Y016852D02*
X012836Y016852D01*
X013836Y016852D01*
X014186Y016852D01*
X016186Y015952D02*
X016186Y015352D01*
X016286Y015352D01*
X016286Y015252D01*
X016286Y015952D02*
X016186Y015952D01*
X016286Y015952D02*
X016286Y016052D01*
X017386Y015652D02*
X017388Y015672D01*
X017394Y015690D01*
X017403Y015708D01*
X017415Y015723D01*
X017430Y015735D01*
X017448Y015744D01*
X017466Y015750D01*
X017486Y015752D01*
X017506Y015750D01*
X017524Y015744D01*
X017542Y015735D01*
X017557Y015723D01*
X017569Y015708D01*
X017578Y015690D01*
X017584Y015672D01*
X017586Y015652D01*
X017584Y015632D01*
X017578Y015614D01*
X017569Y015596D01*
X017557Y015581D01*
X017542Y015569D01*
X017524Y015560D01*
X017506Y015554D01*
X017486Y015552D01*
X017466Y015554D01*
X017448Y015560D01*
X017430Y015569D01*
X017415Y015581D01*
X017403Y015596D01*
X017394Y015614D01*
X017388Y015632D01*
X017386Y015652D01*
X016786Y015652D02*
X016788Y015704D01*
X016794Y015756D01*
X016804Y015808D01*
X016817Y015858D01*
X016834Y015908D01*
X016855Y015956D01*
X016880Y016002D01*
X016908Y016046D01*
X016939Y016088D01*
X016973Y016128D01*
X017010Y016165D01*
X017050Y016199D01*
X017092Y016230D01*
X017136Y016258D01*
X017182Y016283D01*
X017230Y016304D01*
X017280Y016321D01*
X017330Y016334D01*
X017382Y016344D01*
X017434Y016350D01*
X017486Y016352D01*
X017538Y016350D01*
X017590Y016344D01*
X017642Y016334D01*
X017692Y016321D01*
X017742Y016304D01*
X017790Y016283D01*
X017836Y016258D01*
X017880Y016230D01*
X017922Y016199D01*
X017962Y016165D01*
X017999Y016128D01*
X018033Y016088D01*
X018064Y016046D01*
X018092Y016002D01*
X018117Y015956D01*
X018138Y015908D01*
X018155Y015858D01*
X018168Y015808D01*
X018178Y015756D01*
X018184Y015704D01*
X018186Y015652D01*
X018184Y015600D01*
X018178Y015548D01*
X018168Y015496D01*
X018155Y015446D01*
X018138Y015396D01*
X018117Y015348D01*
X018092Y015302D01*
X018064Y015258D01*
X018033Y015216D01*
X017999Y015176D01*
X017962Y015139D01*
X017922Y015105D01*
X017880Y015074D01*
X017836Y015046D01*
X017790Y015021D01*
X017742Y015000D01*
X017692Y014983D01*
X017642Y014970D01*
X017590Y014960D01*
X017538Y014954D01*
X017486Y014952D01*
X017434Y014954D01*
X017382Y014960D01*
X017330Y014970D01*
X017280Y014983D01*
X017230Y015000D01*
X017182Y015021D01*
X017136Y015046D01*
X017092Y015074D01*
X017050Y015105D01*
X017010Y015139D01*
X016973Y015176D01*
X016939Y015216D01*
X016908Y015258D01*
X016880Y015302D01*
X016855Y015348D01*
X016834Y015396D01*
X016817Y015446D01*
X016804Y015496D01*
X016794Y015548D01*
X016788Y015600D01*
X016786Y015652D01*
X018686Y015952D02*
X018686Y016052D01*
X018686Y015952D02*
X018786Y015952D01*
X018786Y015352D01*
X018686Y015352D01*
X018686Y015252D01*
X018336Y014452D02*
X017936Y014452D01*
X016986Y014452D01*
X016636Y014452D01*
X016636Y016852D02*
X016986Y016852D01*
X017986Y016852D01*
X018336Y016852D01*
X010036Y016852D02*
X009686Y016852D01*
X008686Y016852D01*
X008336Y016852D01*
X007886Y008352D02*
X007386Y008352D01*
X007136Y008102D01*
X007136Y007602D01*
X007386Y007352D01*
X007886Y007352D01*
X008136Y007602D01*
X008136Y008102D01*
X007886Y008352D01*
X010586Y007195D02*
X010629Y007152D01*
X010673Y007152D01*
X010716Y007195D01*
X010716Y007412D01*
X010673Y007412D02*
X010760Y007412D01*
X010881Y007412D02*
X011011Y007412D01*
X011054Y007368D01*
X011054Y007282D01*
X011011Y007238D01*
X010881Y007238D01*
X010881Y007152D02*
X010881Y007412D01*
X011175Y007282D02*
X011349Y007282D01*
X011305Y007412D02*
X011175Y007282D01*
X011305Y007152D02*
X011305Y007412D01*
X016506Y006031D02*
X016506Y003411D01*
X016646Y003272D01*
X019266Y003272D01*
X019266Y006031D01*
X016506Y006031D01*
X016665Y003572D02*
X016667Y003595D01*
X016673Y003618D01*
X016682Y003639D01*
X016695Y003659D01*
X016711Y003676D01*
X016729Y003690D01*
X016749Y003701D01*
X016771Y003709D01*
X016794Y003713D01*
X016818Y003713D01*
X016841Y003709D01*
X016863Y003701D01*
X016883Y003690D01*
X016901Y003676D01*
X016917Y003659D01*
X016930Y003639D01*
X016939Y003618D01*
X016945Y003595D01*
X016947Y003572D01*
X016945Y003549D01*
X016939Y003526D01*
X016930Y003505D01*
X016917Y003485D01*
X016901Y003468D01*
X016883Y003454D01*
X016863Y003443D01*
X016841Y003435D01*
X016818Y003431D01*
X016794Y003431D01*
X016771Y003435D01*
X016749Y003443D01*
X016729Y003454D01*
X016711Y003468D01*
X016695Y003485D01*
X016682Y003505D01*
X016673Y003526D01*
X016667Y003549D01*
X016665Y003572D01*
X029236Y007602D02*
X029486Y007352D01*
X029986Y007352D01*
X030236Y007602D01*
X030236Y008102D01*
X029986Y008352D01*
X029486Y008352D01*
X029236Y008102D01*
X029236Y007602D01*
X029603Y016778D02*
X029646Y016821D01*
X029646Y016864D01*
X029603Y016908D01*
X029386Y016908D01*
X029386Y016951D02*
X029386Y016864D01*
X029386Y017072D02*
X029386Y017202D01*
X029429Y017246D01*
X029516Y017246D01*
X029559Y017202D01*
X029559Y017072D01*
X029646Y017072D02*
X029386Y017072D01*
X029386Y017367D02*
X029516Y017367D01*
X029473Y017454D01*
X029473Y017497D01*
X029516Y017540D01*
X029603Y017540D01*
X029646Y017497D01*
X029646Y017410D01*
X029603Y017367D01*
X029386Y017367D02*
X029386Y017540D01*
X036186Y017540D02*
X036229Y017454D01*
X036316Y017367D01*
X036316Y017497D01*
X036359Y017540D01*
X036403Y017540D01*
X036446Y017497D01*
X036446Y017410D01*
X036403Y017367D01*
X036316Y017367D01*
X036316Y017246D02*
X036359Y017202D01*
X036359Y017072D01*
X036446Y017072D02*
X036186Y017072D01*
X036186Y017202D01*
X036229Y017246D01*
X036316Y017246D01*
X036186Y016951D02*
X036186Y016864D01*
X036186Y016908D02*
X036403Y016908D01*
X036446Y016864D01*
X036446Y016821D01*
X036403Y016778D01*
D14*
X036541Y016596D02*
X038431Y016596D01*
X038431Y014707D01*
X036541Y014707D01*
X036541Y016596D01*
X036551Y016242D02*
X036896Y016587D01*
X037086Y016452D02*
X037886Y016452D01*
X037925Y016450D01*
X037964Y016444D01*
X038002Y016435D01*
X038039Y016422D01*
X038075Y016405D01*
X038108Y016385D01*
X038140Y016361D01*
X038169Y016335D01*
X038195Y016306D01*
X038219Y016274D01*
X038239Y016241D01*
X038256Y016205D01*
X038269Y016168D01*
X038278Y016130D01*
X038284Y016091D01*
X038286Y016052D01*
X038286Y015252D01*
X038284Y015213D01*
X038278Y015174D01*
X038269Y015136D01*
X038256Y015099D01*
X038239Y015063D01*
X038219Y015030D01*
X038195Y014998D01*
X038169Y014969D01*
X038140Y014943D01*
X038108Y014919D01*
X038075Y014899D01*
X038039Y014882D01*
X038002Y014869D01*
X037964Y014860D01*
X037925Y014854D01*
X037886Y014852D01*
X037086Y014852D01*
X036896Y014716D02*
X036551Y015061D01*
X036686Y015252D02*
X036686Y016052D01*
X036688Y016091D01*
X036694Y016130D01*
X036703Y016168D01*
X036716Y016205D01*
X036733Y016241D01*
X036753Y016274D01*
X036777Y016306D01*
X036803Y016335D01*
X036832Y016361D01*
X036864Y016385D01*
X036897Y016405D01*
X036933Y016422D01*
X036970Y016435D01*
X037008Y016444D01*
X037047Y016450D01*
X037086Y016452D01*
X036686Y015252D02*
X036688Y015213D01*
X036694Y015174D01*
X036703Y015136D01*
X036716Y015099D01*
X036733Y015063D01*
X036753Y015030D01*
X036777Y014998D01*
X036803Y014969D01*
X036832Y014943D01*
X036864Y014919D01*
X036897Y014899D01*
X036933Y014882D01*
X036970Y014869D01*
X037008Y014860D01*
X037047Y014854D01*
X037086Y014852D01*
X028630Y015335D02*
X028630Y015768D01*
X027842Y015768D02*
X027842Y015335D01*
X026030Y015335D02*
X026030Y015768D01*
X025242Y015768D02*
X025242Y015335D01*
X023430Y015335D02*
X023430Y015768D01*
X022642Y015768D02*
X022642Y015335D01*
X010794Y005625D02*
X006778Y005625D01*
X006778Y003578D01*
X010794Y003578D01*
X010794Y005625D01*
X025620Y003945D02*
X026053Y003945D01*
X027505Y003971D02*
X027505Y004257D01*
X027505Y004846D02*
X027505Y005132D01*
X028667Y005132D02*
X028667Y004846D01*
X028667Y004257D02*
X028667Y003971D01*
X026053Y003158D02*
X025620Y003158D01*
X002423Y014864D02*
X002423Y016439D01*
X002030Y017089D02*
X000849Y017089D01*
X000849Y014215D01*
X002030Y014215D01*
D15*
X010440Y005241D03*
D16*
X017805Y005397D02*
X017902Y005397D01*
X017854Y005397D02*
X017854Y005687D01*
X017902Y005687D02*
X017805Y005687D01*
X018002Y005638D02*
X018002Y005445D01*
X018050Y005397D01*
X018147Y005397D01*
X018195Y005445D01*
X018296Y005397D02*
X018490Y005590D01*
X018490Y005638D01*
X018442Y005687D01*
X018345Y005687D01*
X018296Y005638D01*
X018195Y005638D02*
X018147Y005687D01*
X018050Y005687D01*
X018002Y005638D01*
X018296Y005397D02*
X018490Y005397D01*
D17*
X025738Y003827D03*
X025912Y015650D03*
X023312Y015650D03*
X028512Y015650D03*
D18*
X017986Y016752D02*
X017986Y016852D01*
X017986Y016752D02*
X016986Y016752D01*
X016986Y016852D01*
X013836Y016852D02*
X013836Y016752D01*
X012836Y016752D01*
X012836Y016852D01*
X009686Y016852D02*
X009686Y016752D01*
X008686Y016752D01*
X008686Y016852D01*
X005536Y016852D02*
X005536Y016752D01*
X004536Y016752D01*
X004536Y016852D01*
X004536Y014552D02*
X004536Y014452D01*
X004536Y014552D02*
X005486Y014552D01*
X005486Y014452D01*
X008686Y014452D02*
X008686Y014552D01*
X009636Y014552D01*
X009636Y014452D01*
X012836Y014452D02*
X012836Y014552D01*
X013786Y014552D01*
X013786Y014452D01*
X016986Y014452D02*
X016986Y014552D01*
X017936Y014552D01*
X017936Y014452D01*
M02*
