G75*
G70*
%OFA0B0*%
%FSLAX24Y24*%
%IPPOS*%
%LPD*%
%AMOC8*
5,1,8,0,0,1.08239X$1,22.5*
%
%ADD10R,0.0237X0.0671*%
%ADD11R,0.0300X0.0580*%
%ADD12R,0.0580X0.0300*%
%ADD13C,0.0671*%
%ADD14C,0.0493*%
%ADD15R,0.0671X0.0592*%
%ADD16R,0.0474X0.0513*%
%ADD17R,0.0295X0.0512*%
%ADD18R,0.0592X0.0671*%
%ADD19R,0.0631X0.0631*%
%ADD20C,0.0138*%
%ADD21R,0.0236X0.0118*%
%ADD22R,0.0965X0.0669*%
%ADD23R,0.0138X0.0299*%
%ADD24R,0.1025X0.0631*%
%ADD25R,0.0513X0.0474*%
%ADD26OC8,0.0680*%
%ADD27R,0.0356X0.0198*%
%ADD28R,0.0474X0.0592*%
%ADD29R,0.1261X0.0867*%
%ADD30C,0.0350*%
%ADD31C,0.0500*%
%ADD32C,0.0680*%
%ADD33R,0.0512X0.0295*%
%ADD34R,0.0198X0.0356*%
%ADD35C,0.0780*%
%ADD36C,0.0740*%
%ADD37C,0.0395*%
%ADD38C,0.0434*%
%ADD39C,0.0730*%
%ADD40C,0.1734*%
D10*
X007123Y003174D03*
X007379Y003174D03*
X007634Y003174D03*
X007890Y003174D03*
X008146Y003174D03*
X008402Y003174D03*
X008658Y003174D03*
X008914Y003174D03*
X009170Y003174D03*
X009426Y003174D03*
X009682Y003174D03*
X009938Y003174D03*
X010194Y003174D03*
X010449Y003174D03*
X010449Y006029D03*
X010194Y006029D03*
X009938Y006029D03*
X009682Y006029D03*
X009426Y006029D03*
X009170Y006029D03*
X008914Y006029D03*
X008658Y006029D03*
X008402Y006029D03*
X008146Y006029D03*
X007890Y006029D03*
X007634Y006029D03*
X007379Y006029D03*
X007123Y006029D03*
D11*
X016784Y006342D03*
X017099Y006342D03*
X017414Y006342D03*
X017729Y006342D03*
X018044Y006342D03*
X018359Y006342D03*
X018673Y006342D03*
X018988Y006342D03*
X018988Y002962D03*
X018673Y002962D03*
X018359Y002962D03*
X018044Y002962D03*
X017729Y002962D03*
X017414Y002962D03*
X017099Y002962D03*
X016784Y002962D03*
D12*
X016196Y003549D03*
X016196Y003864D03*
X016196Y004179D03*
X016196Y004494D03*
X016196Y004809D03*
X016196Y005124D03*
X016196Y005439D03*
X016196Y005754D03*
X019576Y005754D03*
X019576Y005439D03*
X019576Y005124D03*
X019576Y004809D03*
X019576Y004494D03*
X019576Y004179D03*
X019576Y003864D03*
X019576Y003549D03*
D13*
X002605Y002965D02*
X002015Y002965D01*
X002015Y005839D02*
X002605Y005839D01*
D14*
X004298Y005031D03*
X003826Y004716D03*
X004298Y004402D03*
X003826Y004087D03*
X004298Y003772D03*
D15*
X005336Y003786D03*
X006236Y003786D03*
X006236Y003117D03*
X005336Y003117D03*
X006236Y004967D03*
X006236Y005636D03*
X009636Y007167D03*
X009636Y007836D03*
X014186Y005636D03*
X014186Y004967D03*
X014286Y003636D03*
X015186Y003636D03*
X015186Y002967D03*
X014286Y002967D03*
X016036Y006367D03*
X016036Y007036D03*
X024586Y005436D03*
X025486Y005436D03*
X025486Y004767D03*
X024586Y004767D03*
X026386Y005667D03*
X026386Y006336D03*
X026886Y004586D03*
X026886Y003917D03*
X020286Y014367D03*
X020286Y015036D03*
X020286Y016067D03*
X020286Y016736D03*
X021186Y016736D03*
X022086Y017036D03*
X022086Y016367D03*
X021186Y016067D03*
X022086Y015336D03*
X022086Y014667D03*
X024686Y014667D03*
X024686Y015336D03*
X024686Y016367D03*
X024686Y017036D03*
X027286Y017036D03*
X027286Y016367D03*
X027286Y015336D03*
X027286Y014667D03*
D16*
X005336Y005736D03*
X005336Y005067D03*
D17*
X013199Y003856D03*
X013573Y003856D03*
X013573Y003147D03*
X013199Y003147D03*
D18*
X012071Y003002D03*
X011401Y003002D03*
X011401Y003902D03*
X012071Y003902D03*
X012551Y005002D03*
X013221Y005002D03*
X012571Y006802D03*
X011901Y006802D03*
X023051Y014602D03*
X023721Y014602D03*
X025651Y014602D03*
X026321Y014602D03*
X028251Y014602D03*
X028921Y014602D03*
X028921Y017102D03*
X028251Y017102D03*
X026321Y017102D03*
X025651Y017102D03*
X023721Y017102D03*
X023051Y017102D03*
X027601Y006752D03*
X028271Y006752D03*
X028271Y005802D03*
X027601Y005802D03*
D19*
X013384Y005852D03*
X011888Y005852D03*
D20*
X027692Y005010D03*
X027889Y005010D03*
X028086Y005010D03*
X028283Y005010D03*
X028480Y005010D03*
X028480Y004093D03*
X028283Y004093D03*
X028086Y004093D03*
X027889Y004093D03*
X027692Y004093D03*
D21*
X027446Y004443D03*
X027446Y004660D03*
X028726Y004660D03*
X028726Y004443D03*
D22*
X028086Y004552D03*
D23*
X028086Y005160D03*
X027889Y005160D03*
X027692Y005160D03*
X028283Y005160D03*
X028480Y005160D03*
X028480Y003943D03*
X028283Y003943D03*
X028086Y003943D03*
X027889Y003943D03*
X027692Y003943D03*
D24*
X029936Y004079D03*
X029936Y005024D03*
D25*
X029721Y006152D03*
X029051Y006152D03*
D26*
X029736Y007852D03*
X007636Y007852D03*
D27*
X025521Y003807D03*
X025521Y003552D03*
X025521Y003296D03*
X026151Y003296D03*
X026151Y003552D03*
X026151Y003807D03*
D28*
X036856Y014372D03*
X037486Y014372D03*
X038116Y014372D03*
X038116Y016931D03*
X037486Y016931D03*
X036856Y016931D03*
D29*
X037486Y015652D03*
D30*
X001636Y016636D03*
X001636Y014667D03*
D31*
X002620Y014274D03*
X002620Y017029D03*
D32*
X003456Y016542D02*
X004056Y016542D01*
X006016Y016542D02*
X006616Y016542D01*
X007606Y016542D02*
X008206Y016542D01*
X010166Y016542D02*
X010766Y016542D01*
X011756Y016542D02*
X012356Y016542D01*
X014316Y016542D02*
X014916Y016542D01*
X015906Y016542D02*
X016506Y016542D01*
X018466Y016542D02*
X019066Y016542D01*
X019066Y014762D02*
X018466Y014762D01*
X016506Y014762D02*
X015906Y014762D01*
X014916Y014762D02*
X014316Y014762D01*
X012356Y014762D02*
X011756Y014762D01*
X010766Y014762D02*
X010166Y014762D01*
X008206Y014762D02*
X007606Y014762D01*
X006616Y014762D02*
X006016Y014762D01*
X004056Y014762D02*
X003456Y014762D01*
D33*
X004682Y017265D03*
X004682Y017639D03*
X005390Y017639D03*
X005390Y017265D03*
X008832Y017265D03*
X008832Y017639D03*
X009540Y017639D03*
X009540Y017265D03*
X012982Y017265D03*
X012982Y017639D03*
X013690Y017639D03*
X013690Y017265D03*
X017132Y017265D03*
X017840Y017265D03*
X017840Y017639D03*
X017132Y017639D03*
D34*
X022780Y015866D03*
X023036Y015866D03*
X023292Y015866D03*
X023292Y015237D03*
X023036Y015237D03*
X022780Y015237D03*
X025380Y015237D03*
X025636Y015237D03*
X025892Y015237D03*
X025892Y015866D03*
X025636Y015866D03*
X025380Y015866D03*
X027980Y015866D03*
X028236Y015866D03*
X028492Y015866D03*
X028492Y015237D03*
X028236Y015237D03*
X027980Y015237D03*
D35*
X027686Y013002D03*
X026686Y013002D03*
X025686Y013002D03*
X024686Y013002D03*
X023686Y013002D03*
X022686Y013002D03*
X021686Y013002D03*
X020686Y013002D03*
X019686Y013002D03*
X018686Y013002D03*
X017686Y013002D03*
X016686Y013002D03*
X015686Y013002D03*
X014686Y013002D03*
X013686Y013002D03*
X012686Y013002D03*
X011686Y013002D03*
X011686Y007802D03*
X012686Y007802D03*
X013686Y007802D03*
X014686Y007802D03*
X015686Y007802D03*
X016686Y007802D03*
X017686Y007802D03*
X018686Y007802D03*
X019686Y007802D03*
X020686Y007802D03*
X021686Y007802D03*
X022686Y007802D03*
X023686Y007802D03*
X024686Y007802D03*
X025686Y007802D03*
X026686Y007802D03*
X027686Y007802D03*
D36*
X029986Y014152D03*
X029986Y015152D03*
X029986Y016152D03*
X029986Y017152D03*
X035586Y017152D03*
X035586Y016152D03*
X035586Y015152D03*
X035586Y014152D03*
D37*
X027036Y005252D03*
X027586Y002952D03*
X021336Y003202D03*
X002186Y007352D03*
X001636Y013152D03*
X004886Y013802D03*
D38*
X022086Y017802D03*
D39*
X038936Y015652D03*
D40*
X023086Y003852D03*
X003786Y007052D03*
M02*
